<svg width="111" height="136" viewBox="0 0 111 136" fill="none" xmlns="http://www.w3.org/2000/svg">
<path d="M4.62969 115.053H10.8297V117.253H2.32969V103.253H10.7297V105.453H4.62969V109.093H10.2297V111.273H4.62969V115.053ZM18.4352 103.253C20.3552 103.253 21.9485 103.927 23.2152 105.273C24.4952 106.62 25.1352 108.28 25.1352 110.253C25.1352 112.213 24.4952 113.873 23.2152 115.233C21.9485 116.58 20.3552 117.253 18.4352 117.253H12.9352V103.253H18.4352ZM18.4352 115.053C19.7552 115.053 20.8285 114.6 21.6552 113.693C22.4952 112.787 22.9152 111.64 22.9152 110.253C22.9152 108.853 22.4952 107.707 21.6552 106.813C20.8285 105.907 19.7552 105.453 18.4352 105.453H15.2352V115.053H18.4352ZM36.0948 116.193C35.1082 117.073 33.8348 117.513 32.2748 117.513C30.7148 117.513 29.4415 117.073 28.4548 116.193C27.4682 115.3 26.9748 114.107 26.9748 112.613V103.253H29.2748V112.473C29.2748 113.327 29.5215 114.007 30.0148 114.513C30.5215 115.02 31.2748 115.273 32.2748 115.273C33.2748 115.273 34.0215 115.02 34.5148 114.513C35.0215 114.007 35.2748 113.327 35.2748 112.473V103.253H37.5748V112.613C37.5748 114.107 37.0815 115.3 36.0948 116.193ZM46.8403 117.513C44.7336 117.513 42.987 116.82 41.6003 115.433C40.2136 114.033 39.5203 112.307 39.5203 110.253C39.5203 108.2 40.2136 106.48 41.6003 105.093C42.987 103.693 44.7336 102.993 46.8403 102.993C48.107 102.993 49.2736 103.293 50.3403 103.893C51.4203 104.493 52.2603 105.307 52.8603 106.333L50.8603 107.493C50.487 106.8 49.9403 106.253 49.2203 105.853C48.5136 105.44 47.7203 105.233 46.8403 105.233C45.347 105.233 44.1336 105.707 43.2003 106.653C42.2803 107.6 41.8203 108.8 41.8203 110.253C41.8203 111.707 42.2803 112.907 43.2003 113.853C44.1336 114.8 45.347 115.273 46.8403 115.273C47.7203 115.273 48.5203 115.073 49.2403 114.673C49.9603 114.26 50.5003 113.707 50.8603 113.013L52.8603 114.153C52.2736 115.18 51.4403 116 50.3603 116.613C49.2936 117.213 48.1203 117.513 46.8403 117.513ZM63.7934 117.253L62.8134 114.433H56.8534L55.8734 117.253H53.3734L58.4534 103.253H61.2134L66.2734 117.253H63.7934ZM57.6134 112.273H62.0534L59.8334 105.953L57.6134 112.273ZM75.8828 103.253V105.453H71.9428V117.253H69.6428V105.453H65.6828V103.253H75.8828ZM77.5836 103.253H79.8836V117.253H77.5836V103.253ZM94.3813 115.413C92.9813 116.813 91.2679 117.513 89.2413 117.513C87.2146 117.513 85.4946 116.813 84.0813 115.413C82.6813 114 81.9813 112.28 81.9813 110.253C81.9813 108.227 82.6813 106.513 84.0813 105.113C85.4946 103.7 87.2146 102.993 89.2413 102.993C91.2679 102.993 92.9813 103.7 94.3813 105.113C95.7946 106.513 96.5013 108.227 96.5013 110.253C96.5013 112.28 95.7946 114 94.3813 115.413ZM85.7013 113.853C86.6613 114.8 87.8413 115.273 89.2413 115.273C90.6413 115.273 91.8146 114.8 92.7613 113.853C93.7213 112.893 94.2013 111.693 94.2013 110.253C94.2013 108.813 93.7213 107.62 92.7613 106.673C91.8146 105.713 90.6413 105.233 89.2413 105.233C87.8413 105.233 86.6613 105.713 85.7013 106.673C84.7546 107.62 84.2813 108.813 84.2813 110.253C84.2813 111.693 84.7546 112.893 85.7013 113.853ZM106.999 103.253H109.299V117.253H107.499L100.899 107.753V117.253H98.5992V103.253H100.399L106.999 112.753V103.253Z" fill="white"/>
<g clip-path="url(#clip0_1_139)">
<path d="M92.1803 0.870361H92.1797H19.6797C18.9895 0.870205 18.4298 1.42958 18.4297 2.11974V2.12036V27.1204H20.9297V3.37036H90.9297V30.8704H47.1797V33.3704H92.1797C92.8698 33.3705 93.4295 32.8111 93.4297 32.121V32.1204V2.12036C93.4298 1.43021 92.8705 0.870518 92.1803 0.870361Z" fill="#599D2E"/>
<path d="M84.6797 7.12036H59.6797V9.62036H84.6797V7.12036Z" fill="#599D2E"/>
<path d="M88.4297 14.6204H63.4297V17.1204H88.4297V14.6204Z" fill="#599D2E"/>
<path d="M83.4297 22.1204H58.4297V24.6204H83.4297V22.1204Z" fill="#599D2E"/>
<path d="M58.33 11.6475C57.4742 9.59052 55.113 8.61677 53.0561 9.47255C53.0209 9.48724 52.9859 9.50224 52.9513 9.51786L42.8156 14.7757C43.2153 13.9472 43.4252 13.04 43.4297 12.1204C43.4297 8.66864 40.6314 5.87036 37.1797 5.87036C33.728 5.87036 30.9297 8.66864 30.9297 12.1204C30.9344 13.4771 31.3848 14.7947 32.2117 15.8704H32.1597C28.6116 15.8941 25.4442 18.0999 24.1916 21.4197L20.8547 32.9211C20.0603 34.9846 21.0891 37.3015 23.1527 38.0958C24.0936 38.458 25.1366 38.4519 26.0733 38.0786C27.1495 37.645 27.987 36.7694 28.3725 35.675L29.6797 31.5149V49.606C28.6041 48.7793 27.2864 48.3288 25.9297 48.324C22.4831 48.3188 19.6848 51.1086 19.6797 54.5554C19.6772 56.2433 20.3584 57.8602 21.5683 59.0374C19.6483 60.0183 18.4372 61.9896 18.4297 64.1455V74.6204C18.4295 75.3105 18.9889 75.8702 19.6791 75.8704H19.6797H32.1797C32.8698 75.8705 33.4295 75.3111 33.4297 74.621V74.6204V64.1455C33.4236 62.3738 32.6005 60.7041 31.1991 59.6204H40.6605C39.2589 60.7041 38.4358 62.3738 38.4298 64.1455V74.6204C38.4297 75.3105 38.9891 75.8702 39.6792 75.8704H39.6798H52.1798C52.87 75.8705 53.4297 75.3111 53.4298 74.621V74.6204V64.1455C53.4223 61.9896 52.2113 60.0183 50.2913 59.0374C52.7592 56.6285 52.8072 52.6749 50.3983 50.2069C48.9148 48.6871 46.7606 48.0254 44.6798 48.4504V22.8796L56.155 16.9213C58.2119 16.0657 59.1856 13.7044 58.33 11.6475ZM37.1797 8.37036C39.2508 8.37036 40.9297 10.0493 40.9297 12.1204C40.9297 14.1915 39.2508 15.8704 37.1797 15.8704C35.1095 15.8682 33.4319 14.1905 33.4297 12.1204C33.4297 10.0493 35.1086 8.37036 37.1797 8.37036ZM25.9297 50.824C28.0008 50.824 29.6797 52.5029 29.6797 54.574C29.6797 56.6451 28.0008 58.324 25.9297 58.324C23.8586 58.324 22.1797 56.6451 22.1797 54.574C22.1819 52.5038 23.8595 50.8263 25.9297 50.824ZM30.9297 73.3704H20.9297V64.1455C20.9322 62.3375 22.3973 60.8725 24.2055 60.8704H27.6539C29.4619 60.8725 30.9272 62.3375 30.9297 64.1455V73.3704ZM50.9297 64.1455V73.3704H40.9297V64.1455C40.9322 62.3375 42.3973 60.8725 44.2055 60.8704H47.6539C49.462 60.8725 50.9272 62.3375 50.9297 64.1455ZM45.9297 50.824C47.9998 50.8261 49.6775 52.5038 49.6797 54.574C49.6797 56.6451 48.0008 58.324 45.9297 58.324C43.8586 58.324 42.1797 56.6451 42.1797 54.574C42.1797 52.5029 43.8586 50.824 45.9297 50.824ZM56.0427 13.7329C55.8753 14.1622 55.5317 14.4993 55.0991 14.6582L42.8542 21.0107C42.4398 21.2257 42.1797 21.6536 42.1797 22.1204V49.606C39.8383 51.3372 39.0272 54.4705 40.2347 57.1204H38.4297V35.8704H35.9297V57.1204H31.6247C31.9803 56.3344 32.1677 55.4829 32.175 54.6204H32.1797V23.3704C32.1795 22.6799 31.6197 22.1204 30.9294 22.1205C30.3836 22.1207 29.9009 22.4749 29.7372 22.9957L26.0047 34.873C25.7219 35.653 24.8602 36.0561 24.0802 35.7732C24.0255 35.7533 23.9719 35.7304 23.9197 35.7043C23.1986 35.3316 22.8925 34.4616 23.2216 33.7194L26.5583 22.218C27.4581 19.9071 29.6795 18.3811 32.1595 18.3704H41.0103C41.2106 18.3707 41.4081 18.3224 41.5859 18.23L54.0097 11.7811C54.755 11.4702 55.6141 11.7883 55.9769 12.5099C56.1692 12.8902 56.1931 13.334 56.0427 13.7329Z" fill="#599D2E"/>
<path d="M70.2911 59.0365C72.7634 56.6277 72.815 52.6707 70.4062 50.1983C67.9975 47.726 64.0405 47.6744 61.5681 50.0832C59.0958 52.4919 59.0442 56.449 61.453 58.9213C61.4909 58.9602 61.5294 58.9987 61.5683 59.0365C59.6484 60.0174 58.4372 61.9887 58.4297 64.1446V74.6194C58.4295 75.3096 58.9889 75.8693 59.6791 75.8694C59.6792 75.8694 59.6795 75.8694 59.6797 75.8694H72.1797C72.8698 75.8696 73.4295 75.3102 73.4297 74.6201C73.4297 74.6199 73.4297 74.6196 73.4297 74.6194V64.1446C73.4222 61.9887 72.2111 60.0174 70.2911 59.0365ZM65.9297 50.823C68.0008 50.823 69.6797 52.5019 69.6797 54.573C69.6797 56.6441 68.0008 58.323 65.9297 58.323C63.8586 58.323 62.1797 56.6441 62.1797 54.573C62.1819 52.5029 63.8595 50.8254 65.9297 50.823ZM70.9297 73.3694H60.9297V64.1446C60.9322 62.3366 62.3973 60.8716 64.2055 60.8694H67.6539C69.4619 60.8716 70.9272 62.3366 70.9297 64.1446V73.3694Z" fill="#599D2E"/>
<path d="M90.2911 59.0365C92.7634 56.6277 92.815 52.6707 90.4062 50.1983C87.9975 47.726 84.0405 47.6744 81.5681 50.0832C79.0958 52.4919 79.0442 56.449 81.453 58.9213C81.4909 58.9602 81.5294 58.9987 81.5683 59.0365C79.6484 60.0174 78.4372 61.9887 78.4297 64.1446V74.6194C78.4295 75.3096 78.9889 75.8693 79.6791 75.8694C79.6792 75.8694 79.6795 75.8694 79.6797 75.8694H92.1797C92.8698 75.8696 93.4295 75.3102 93.4297 74.6201C93.4297 74.6199 93.4297 74.6196 93.4297 74.6194V64.1446C93.4222 61.9887 92.2111 60.0174 90.2911 59.0365ZM85.9297 50.823C88.0008 50.823 89.6797 52.5019 89.6797 54.573C89.6797 56.6441 88.0008 58.323 85.9297 58.323C83.8586 58.323 82.1797 56.6441 82.1797 54.573C82.1819 52.5029 83.8595 50.8254 85.9297 50.823ZM90.9297 73.3694H80.9297V64.1446C80.9322 62.3366 82.3973 60.8716 84.2055 60.8694H87.6539C89.4619 60.8716 90.9272 62.3366 90.9297 64.1446V73.3694Z" fill="#599D2E"/>
</g>
<defs>
<clipPath id="clip0_1_139">
<rect width="75" height="75" fill="white" transform="translate(18.4297 0.870361)"/>
</clipPath>
</defs>
</svg>
