<svg width="122" height="136" viewBox="0 0 122 136" fill="none" xmlns="http://www.w3.org/2000/svg">
<path d="M10.2801 103.253H12.5801V117.253H10.2801V111.193H4.28008V117.253H1.98008V103.253H4.28008V108.993H10.2801V103.253ZM17.6785 115.053H23.8785V117.253H15.3785V103.253H23.7785V105.453H17.6785V109.093H23.2785V111.273H17.6785V115.053ZM35.2993 117.253L34.3193 114.433H28.3593L27.3793 117.253H24.8793L29.9593 103.253H32.7193L37.7793 117.253H35.2993ZM29.1193 112.273H33.5593L31.3393 105.953L29.1193 112.273ZM41.5848 115.053H47.2848V117.253H39.2848V103.253H41.5848V115.053ZM56.6855 103.253V105.453H52.7455V117.253H50.4455V105.453H46.4855V103.253H56.6855ZM66.6863 103.253H68.9863V117.253H66.6863V111.193H60.6863V117.253H58.3863V103.253H60.6863V108.993H66.6863V103.253ZM78.4048 117.513C76.2981 117.513 74.5514 116.82 73.1648 115.433C71.7781 114.033 71.0848 112.307 71.0848 110.253C71.0848 108.2 71.7781 106.48 73.1648 105.093C74.5514 103.693 76.2981 102.993 78.4048 102.993C79.6714 102.993 80.8381 103.293 81.9048 103.893C82.9848 104.493 83.8248 105.307 84.4248 106.333L82.4248 107.493C82.0514 106.8 81.5048 106.253 80.7848 105.853C80.0781 105.44 79.2848 105.233 78.4048 105.233C76.9114 105.233 75.6981 105.707 74.7648 106.653C73.8448 107.6 73.3848 108.8 73.3848 110.253C73.3848 111.707 73.8448 112.907 74.7648 113.853C75.6981 114.8 76.9114 115.273 78.4048 115.273C79.2848 115.273 80.0848 115.073 80.8048 114.673C81.5248 114.26 82.0648 113.707 82.4248 113.013L84.4248 114.153C83.8381 115.18 83.0048 116 81.9248 116.613C80.8581 117.213 79.6848 117.513 78.4048 117.513ZM95.3579 117.253L94.3779 114.433H88.4179L87.4379 117.253H84.9379L90.0179 103.253H92.7779L97.8379 117.253H95.3579ZM89.1779 112.273H93.6179L91.3979 105.953L89.1779 112.273ZM107.323 117.253L104.363 112.153H101.643V117.253H99.3434V103.253H104.943C106.197 103.253 107.257 103.693 108.123 104.573C109.003 105.44 109.443 106.5 109.443 107.753C109.443 108.647 109.183 109.467 108.663 110.213C108.157 110.947 107.49 111.48 106.663 111.813L109.843 117.253H107.323ZM101.643 105.413V110.093H104.943C105.557 110.093 106.077 109.867 106.503 109.413C106.93 108.96 107.143 108.407 107.143 107.753C107.143 107.1 106.93 106.547 106.503 106.093C106.077 105.64 105.557 105.413 104.943 105.413H101.643ZM113.909 115.053H120.109V117.253H111.609V103.253H120.009V105.453H113.909V109.093H119.509V111.273H113.909V115.053Z" fill="white"/>
<path d="M68.1113 16.1047H64.5957V12.5891C64.5957 12.2783 64.4722 11.9802 64.2525 11.7605C64.0327 11.5407 63.7346 11.4172 63.4238 11.4172H58.7363C58.4255 11.4172 58.1275 11.5407 57.9077 11.7605C57.6879 11.9802 57.5645 12.2783 57.5645 12.5891V16.1047H54.0488C53.738 16.1047 53.44 16.2282 53.2202 16.448C53.0004 16.6677 52.877 16.9658 52.877 17.2766V21.9641C52.877 22.2749 53.0004 22.573 53.2202 22.7928C53.44 23.0125 53.738 23.136 54.0488 23.136H57.5645V26.6516C57.5645 26.9624 57.6879 27.2605 57.9077 27.4803C58.1275 27.7 58.4255 27.8235 58.7363 27.8235H63.4238C63.7346 27.8235 64.0327 27.7 64.2525 27.4803C64.4722 27.2605 64.5957 26.9624 64.5957 26.6516V23.136H68.1113C68.4221 23.136 68.7202 23.0125 68.94 22.7928C69.1597 22.573 69.2832 22.2749 69.2832 21.9641V17.2766C69.2832 16.9658 69.1597 16.6677 68.94 16.448C68.7202 16.2282 68.4221 16.1047 68.1113 16.1047ZM66.9395 20.7922H63.4238C63.113 20.7922 62.815 20.9157 62.5952 21.1355C62.3754 21.3552 62.252 21.6533 62.252 21.9641V25.4797H59.9082V21.9641C59.9082 21.6533 59.7847 21.3552 59.565 21.1355C59.3452 20.9157 59.0471 20.7922 58.7363 20.7922H55.2207V18.4485H58.7363C59.0471 18.4485 59.3452 18.325 59.565 18.1053C59.7847 17.8855 59.9082 17.5874 59.9082 17.2766V13.761H62.252V17.2766C62.252 17.5874 62.3754 17.8855 62.5952 18.1053C62.815 18.325 63.113 18.4485 63.4238 18.4485H66.9395V20.7922Z" fill="#599D2E"/>
<path d="M93.5762 22.3842C93.5999 22.178 93.6116 21.9707 93.6113 21.7631C93.6056 20.6889 93.233 19.649 92.5552 18.8156C91.8775 17.9822 90.9352 17.4055 89.8848 17.1811C88.6965 16.9549 87.4667 17.1885 86.4442 17.8347C85.4217 18.4808 84.6827 19.4913 84.377 20.6616L79.2207 35.4975C79.1443 35.5278 79.0699 35.5631 78.998 35.603L68.6387 41.6733C67.0535 42.6044 65.7386 43.9331 64.8241 45.5279C63.9095 47.1227 63.4269 48.9286 63.4238 50.767V61.8061C63.113 61.8061 62.815 61.9296 62.5952 62.1493C62.3754 62.3691 62.252 62.6672 62.252 62.978V72.353C62.252 72.6638 62.3754 72.9618 62.5952 73.1816C62.815 73.4014 63.113 73.5248 63.4238 73.5248H79.8301C80.1409 73.5248 80.4389 73.4014 80.6587 73.1816C80.8785 72.9618 81.002 72.6638 81.002 72.353V62.978C81.002 62.6672 80.8785 62.3691 80.6587 62.1493C80.4389 61.9296 80.1409 61.8061 79.8301 61.8061V59.228C79.8323 58.733 79.9376 58.2439 80.1394 57.792C80.3412 57.34 80.6349 56.9351 81.002 56.603L88.9238 49.56C89.7904 48.8018 90.4106 47.802 90.7051 46.6889L95.791 27.6694C95.8996 27.2722 95.9548 26.8624 95.9551 26.4506C95.9505 25.6236 95.7282 24.8124 95.3106 24.0986C94.893 23.3848 94.2948 22.7935 93.5762 22.3842ZM86.6152 21.353C86.7591 20.7469 87.126 20.2174 87.643 19.8699C88.1599 19.5223 88.7888 19.3824 89.4043 19.478C89.9296 19.588 90.4012 19.8749 90.7403 20.2908C91.0794 20.7068 91.2656 21.2265 91.2676 21.7631V21.7866C90.2208 21.806 89.209 22.1668 88.3862 22.8141C87.5633 23.4614 86.9744 24.3597 86.709 25.3725L83.4395 35.4623C82.9444 35.2275 82.4137 35.077 81.8691 35.017L86.6152 21.353ZM78.6582 71.1811H64.5957V64.1498H78.6582V71.1811ZM93.5293 27.06L88.4316 46.0912C88.2553 46.7526 87.8885 47.3475 87.3769 47.8022L79.4434 54.8451C78.8295 55.3988 78.3382 56.0747 78.0012 56.8295C77.6641 57.5843 77.4887 58.4013 77.4863 59.228V61.8061H65.7676V50.767C65.7734 49.3373 66.15 47.9335 66.8607 46.6928C67.5714 45.4522 68.5919 44.4172 69.8223 43.6889L80.1699 37.6303C80.4367 37.4749 80.7316 37.3737 81.0376 37.3325C81.3437 37.2914 81.6548 37.3112 81.9532 37.3907C82.2516 37.4701 82.5313 37.6078 82.7763 37.7958C83.0213 37.9837 83.2268 38.2182 83.3809 38.4858C83.6852 39.0273 83.7692 39.6652 83.6152 40.267C83.5338 40.5642 83.3946 40.8424 83.2056 41.0857C83.0166 41.329 82.7815 41.5326 82.5137 41.685L75.7988 45.5639C75.5438 45.726 75.3612 45.9805 75.2893 46.2741C75.2174 46.5676 75.2617 46.8776 75.4129 47.1393C75.5642 47.401 75.8107 47.5941 76.101 47.6783C76.3913 47.7625 76.7029 47.7313 76.9707 47.5912L83.6855 43.7123C84.2223 43.4078 84.6926 42.999 85.069 42.5099C85.4453 42.0209 85.7201 41.4615 85.877 40.8647C86.1959 39.6656 86.0274 38.3891 85.4082 37.3139L85.3379 37.2084L88.959 26.0405C89.1028 25.4344 89.4698 24.9049 89.9867 24.5574C90.5036 24.2098 91.1325 24.0699 91.748 24.1655C92.2733 24.2755 92.7449 24.5624 93.084 24.9783C93.4232 25.3943 93.6093 25.914 93.6113 26.4506C93.6153 26.6567 93.5876 26.8623 93.5293 27.06Z" fill="#599D2E"/>
<path d="M58.7363 61.8079V50.7689C58.7333 48.9304 58.2507 47.1245 57.3361 45.5297C56.4215 43.9349 55.1067 42.6063 53.5215 41.6751L43.1621 35.5931C43.0918 35.5579 43.0098 35.5345 42.9395 35.4993L37.8184 20.7454C37.5207 19.5581 36.7818 18.5287 35.7521 17.8669C34.7223 17.2051 33.4791 16.9605 32.2754 17.1829C31.2249 17.4074 30.2827 17.9841 29.6049 18.8174C28.9271 19.6508 28.5545 20.6908 28.5488 21.7649C28.5485 21.9725 28.5603 22.1799 28.584 22.386C27.8653 22.7953 27.2672 23.3866 26.8496 24.1004C26.432 24.8143 26.2097 25.6255 26.2051 26.4524C26.2074 26.8633 26.2585 27.2724 26.3574 27.6712L31.4551 46.679C31.7464 47.7968 32.367 48.8012 33.2363 49.5618L41.1465 56.6048C41.5172 56.9346 41.8142 57.3388 42.0181 57.7911C42.2221 58.2434 42.3284 58.7336 42.3301 59.2298V61.8079C42.0193 61.8079 41.7212 61.9314 41.5014 62.1511C41.2817 62.3709 41.1582 62.669 41.1582 62.9798V72.3548C41.1582 72.6656 41.2817 72.9637 41.5014 73.1834C41.7212 73.4032 42.0193 73.5267 42.3301 73.5267H58.7363C59.0471 73.5267 59.3452 73.4032 59.565 73.1834C59.7847 72.9637 59.9082 72.6656 59.9082 72.3548V62.9798C59.9082 62.669 59.7847 62.3709 59.565 62.1511C59.3452 61.9314 59.0471 61.8079 58.7363 61.8079ZM30.8926 21.7649C30.894 21.2299 31.0785 20.7115 31.4153 20.2958C31.7521 19.8801 32.221 19.5921 32.7441 19.4798C33.3766 19.388 34.0203 19.5387 34.5463 19.9016C35.0722 20.2646 35.4415 20.813 35.5801 21.4368L40.291 35.0189C39.7464 35.0789 39.2157 35.2294 38.7207 35.4642L35.4746 25.4329C35.2104 24.4101 34.6204 23.5012 33.7936 22.8437C32.9669 22.1861 31.9486 21.8157 30.8926 21.7884V21.7649ZM42.7051 54.847L34.7832 47.804C34.2688 47.3469 33.9017 46.7473 33.7285 46.0814L28.6191 27.0618C28.5706 26.8624 28.547 26.6577 28.5488 26.4524C28.5503 25.9174 28.7347 25.399 29.0716 24.9833C29.4084 24.5676 29.8773 24.2796 30.4004 24.1673C31.0284 24.073 31.6687 24.2201 32.1927 24.5788C32.7166 24.9375 33.0853 25.4814 33.2246 26.1009L36.8223 37.2103L36.752 37.3157C36.1327 38.3909 35.9642 39.6675 36.2832 40.8665C36.4401 41.4633 36.7148 42.0227 37.0912 42.5118C37.4675 43.0008 37.9379 43.4096 38.4746 43.7142L45.1895 47.5931C45.4573 47.7332 45.7689 47.7644 46.0592 47.6802C46.3494 47.596 46.596 47.4028 46.7472 47.1412C46.8985 46.8795 46.9428 46.5695 46.8709 46.2759C46.799 45.9823 46.6164 45.7279 46.3613 45.5657L39.6465 41.6868C39.3787 41.5345 39.1435 41.3308 38.9545 41.0875C38.7655 40.8442 38.6263 40.566 38.5449 40.2689C38.391 39.6671 38.4749 39.0291 38.7793 38.4876C38.9324 38.2206 39.1366 37.9864 39.3803 37.7983C39.6239 37.6102 39.9022 37.4719 40.1993 37.3914C40.4964 37.3109 40.8064 37.2897 41.1117 37.329C41.417 37.3682 41.7115 37.4673 41.9785 37.6204L52.3379 43.6907C53.5683 44.419 54.5887 45.454 55.2994 46.6947C56.0101 47.9353 56.3868 49.3391 56.3926 50.7689V61.8079H44.6738V59.2298C44.6718 58.402 44.4955 57.5838 44.1563 56.8287C43.8171 56.0735 43.3226 55.3983 42.7051 54.847ZM57.5645 71.1829H43.502V64.1517H57.5645V71.1829Z" fill="#599D2E"/>
<path d="M77.6591 6.88406C76.5712 5.79426 75.2791 4.92969 73.8567 4.33984C72.4343 3.74998 70.9095 3.44642 69.3696 3.44653C67.8298 3.44664 66.305 3.75042 64.8827 4.34047C63.4604 4.93053 62.1684 5.79528 61.0806 6.88523C59.993 5.79525 58.701 4.93049 57.2788 4.34046C55.8565 3.75044 54.3318 3.44673 52.792 3.44673C51.2521 3.44673 49.7274 3.75044 48.3052 4.34046C46.8829 4.93049 45.5909 5.79525 44.5033 6.88523C42.3099 9.08329 41.0781 12.0617 41.0781 15.1669C41.0781 18.2721 42.3099 21.2505 44.5033 23.4485L60.2533 39.1985C60.473 39.4182 60.7711 39.5416 61.0818 39.5416C61.3925 39.5416 61.6906 39.4182 61.9103 39.1985L77.6603 23.4485C79.8536 21.2501 81.0852 18.2714 81.085 15.166C81.0848 12.0607 79.8527 9.08217 77.6591 6.88406ZM61.0806 36.713L46.1591 21.7915C44.8491 20.4797 43.9575 18.809 43.5969 16.9905C43.2362 15.172 43.4229 13.2874 44.1331 11.575C44.8434 9.8626 46.0455 8.39921 47.5873 7.36984C49.1292 6.34047 50.9416 5.79134 52.7955 5.79187C54.027 5.78764 55.247 6.02866 56.3844 6.50088C57.5217 6.97309 58.5537 7.66704 59.4201 8.54226L60.2521 9.37429C60.4719 9.59399 60.7699 9.7174 61.0806 9.7174C61.3914 9.7174 61.6894 9.59399 61.9091 9.37429L62.7435 8.53992C63.6135 7.66834 64.6469 6.97688 65.7844 6.50509C66.9219 6.03331 68.1413 5.79047 69.3728 5.79047C70.6043 5.79047 71.8237 6.03331 72.9612 6.50509C74.0988 6.97688 75.1321 7.66834 76.0021 8.53992C77.7575 10.2977 78.7435 12.6803 78.7435 15.1645C78.7435 17.6487 77.7575 20.0314 76.0021 21.7891L61.0806 36.713Z" fill="#599D2E"/>
</svg>
