<svg width="100" height="136" viewBox="0 0 100 136" fill="none" xmlns="http://www.w3.org/2000/svg">
<path d="M3.9793 115.053H9.6793V117.253H1.6793V103.253H3.9793V115.053ZM22.1879 115.413C20.7879 116.813 19.0746 117.513 17.0479 117.513C15.0212 117.513 13.3012 116.813 11.8879 115.413C10.4879 114 9.78789 112.28 9.78789 110.253C9.78789 108.227 10.4879 106.513 11.8879 105.113C13.3012 103.7 15.0212 102.993 17.0479 102.993C19.0746 102.993 20.7879 103.7 22.1879 105.113C23.6012 106.513 24.3079 108.227 24.3079 110.253C24.3079 112.28 23.6012 114 22.1879 115.413ZM13.5079 113.853C14.4679 114.8 15.6479 115.273 17.0479 115.273C18.4479 115.273 19.6212 114.8 20.5679 113.853C21.5279 112.893 22.0079 111.693 22.0079 110.253C22.0079 108.813 21.5279 107.62 20.5679 106.673C19.6212 105.713 18.4479 105.233 17.0479 105.233C15.6479 105.233 14.4679 105.713 13.5079 106.673C12.5612 107.62 12.0879 108.813 12.0879 110.253C12.0879 111.693 12.5612 112.893 13.5079 113.853ZM40.0259 110.013V110.973C40.0259 112.893 39.3925 114.467 38.1259 115.693C36.8592 116.907 35.2059 117.513 33.1659 117.513C31.0059 117.513 29.2192 116.813 27.8059 115.413C26.4059 114.013 25.7059 112.293 25.7059 110.253C25.7059 108.227 26.4059 106.513 27.8059 105.113C29.2192 103.7 30.9659 102.993 33.0459 102.993C34.3525 102.993 35.5459 103.293 36.6259 103.893C37.7059 104.493 38.5459 105.3 39.1459 106.313L37.1659 107.453C36.7925 106.787 36.2392 106.253 35.5059 105.853C34.7725 105.44 33.9525 105.233 33.0459 105.233C31.5792 105.233 30.3725 105.713 29.4259 106.673C28.4792 107.633 28.0059 108.833 28.0059 110.273C28.0059 111.713 28.4792 112.907 29.4259 113.853C30.3859 114.8 31.6392 115.273 33.1859 115.273C34.4259 115.273 35.4325 114.987 36.2059 114.413C36.9925 113.827 37.4925 113.047 37.7059 112.073H33.0259V110.013H40.0259ZM42.1285 103.253H44.4285V117.253H42.1285V103.253ZM51.6909 117.513C50.3442 117.513 49.1975 117.207 48.2509 116.593C47.3175 115.98 46.6642 115.14 46.2909 114.073L48.2709 112.913C48.8309 114.487 49.9909 115.273 51.7509 115.273C52.6175 115.273 53.2642 115.107 53.6909 114.773C54.1309 114.427 54.3509 113.98 54.3509 113.433C54.3509 112.86 54.1175 112.427 53.6509 112.133C53.1842 111.827 52.3575 111.493 51.1709 111.133C50.5042 110.933 49.9642 110.747 49.5509 110.573C49.1375 110.4 48.6975 110.16 48.2309 109.853C47.7775 109.533 47.4375 109.14 47.2109 108.673C46.9842 108.207 46.8709 107.66 46.8709 107.033C46.8709 105.793 47.3109 104.813 48.1909 104.093C49.0709 103.36 50.1309 102.993 51.3709 102.993C52.4909 102.993 53.4709 103.267 54.3109 103.813C55.1509 104.36 55.7975 105.113 56.2509 106.073L54.3109 107.193C53.7242 105.887 52.7442 105.233 51.3709 105.233C50.7042 105.233 50.1709 105.393 49.7709 105.713C49.3709 106.02 49.1709 106.44 49.1709 106.973C49.1709 107.493 49.3709 107.907 49.7709 108.213C50.1842 108.507 50.9242 108.82 51.9909 109.153C52.5242 109.327 52.9109 109.46 53.1509 109.553C53.4042 109.633 53.7509 109.767 54.1909 109.953C54.6442 110.14 54.9842 110.327 55.2109 110.513C55.4375 110.7 55.6775 110.933 55.9309 111.213C56.1975 111.493 56.3842 111.813 56.4909 112.173C56.5975 112.533 56.6509 112.94 56.6509 113.393C56.6509 114.66 56.1909 115.667 55.2709 116.413C54.3642 117.147 53.1709 117.513 51.6909 117.513ZM67.2246 103.253V105.453H63.2846V117.253H60.9846V105.453H57.0246V103.253H67.2246ZM68.9254 103.253H71.2254V117.253H68.9254V103.253ZM80.643 117.513C78.5364 117.513 76.7897 116.82 75.403 115.433C74.0164 114.033 73.323 112.307 73.323 110.253C73.323 108.2 74.0164 106.48 75.403 105.093C76.7897 103.693 78.5364 102.993 80.643 102.993C81.9097 102.993 83.0764 103.293 84.143 103.893C85.223 104.493 86.063 105.307 86.663 106.333L84.663 107.493C84.2897 106.8 83.743 106.253 83.023 105.853C82.3164 105.44 81.523 105.233 80.643 105.233C79.1497 105.233 77.9364 105.707 77.003 106.653C76.083 107.6 75.623 108.8 75.623 110.253C75.623 111.707 76.083 112.907 77.003 113.853C77.9364 114.8 79.1497 115.273 80.643 115.273C81.523 115.273 82.323 115.073 83.043 114.673C83.763 114.26 84.303 113.707 84.663 113.013L86.663 114.153C86.0764 115.18 85.243 116 84.163 116.613C83.0964 117.213 81.923 117.513 80.643 117.513ZM93.2338 117.513C91.8872 117.513 90.7405 117.207 89.7938 116.593C88.8605 115.98 88.2072 115.14 87.8338 114.073L89.8138 112.913C90.3738 114.487 91.5338 115.273 93.2938 115.273C94.1605 115.273 94.8072 115.107 95.2338 114.773C95.6738 114.427 95.8938 113.98 95.8938 113.433C95.8938 112.86 95.6605 112.427 95.1938 112.133C94.7272 111.827 93.9005 111.493 92.7138 111.133C92.0472 110.933 91.5072 110.747 91.0938 110.573C90.6805 110.4 90.2405 110.16 89.7738 109.853C89.3205 109.533 88.9805 109.14 88.7538 108.673C88.5272 108.207 88.4138 107.66 88.4138 107.033C88.4138 105.793 88.8538 104.813 89.7338 104.093C90.6138 103.36 91.6738 102.993 92.9138 102.993C94.0338 102.993 95.0138 103.267 95.8538 103.813C96.6938 104.36 97.3405 105.113 97.7938 106.073L95.8538 107.193C95.2672 105.887 94.2872 105.233 92.9138 105.233C92.2472 105.233 91.7138 105.393 91.3138 105.713C90.9138 106.02 90.7138 106.44 90.7138 106.973C90.7138 107.493 90.9138 107.907 91.3138 108.213C91.7272 108.507 92.4672 108.82 93.5338 109.153C94.0672 109.327 94.4538 109.46 94.6938 109.553C94.9472 109.633 95.2938 109.767 95.7338 109.953C96.1872 110.14 96.5272 110.327 96.7538 110.513C96.9805 110.7 97.2205 110.933 97.4738 111.213C97.7405 111.493 97.9272 111.813 98.0338 112.173C98.1405 112.533 98.1938 112.94 98.1938 113.393C98.1938 114.66 97.7338 115.667 96.8138 116.413C95.9072 117.147 94.7138 117.513 93.2338 117.513Z" fill="white"/>
<g clip-path="url(#clip0_1_166)">
<path d="M57.0372 63.7727C55.0364 63.7727 53.4082 65.4009 53.4082 67.4017C53.4082 69.4025 55.0364 71.0308 57.0372 71.0308C59.038 71.0308 60.6663 69.4025 60.6663 67.4017C60.6663 65.4009 59.038 63.7727 57.0372 63.7727ZM57.0372 68.6114C56.3707 68.6114 55.8276 68.0695 55.8276 67.4017C55.8276 66.734 56.3707 66.1921 57.0372 66.1921C57.7038 66.1921 58.2469 66.734 58.2469 67.4017C58.2469 68.0695 57.7038 68.6114 57.0372 68.6114Z" fill="#599D2E"/>
<path d="M28.006 63.7727C26.0052 63.7727 24.377 65.4009 24.377 67.4017C24.377 69.4025 26.0052 71.0308 28.006 71.0308C30.0068 71.0308 31.635 69.4025 31.635 67.4017C31.635 65.4009 30.0068 63.7727 28.006 63.7727ZM28.006 68.6114C27.3395 68.6114 26.7963 68.0695 26.7963 67.4017C26.7963 66.734 27.3395 66.1921 28.006 66.1921C28.6725 66.1921 29.2157 66.734 29.2157 67.4017C29.2157 68.0695 28.6725 68.6114 28.006 68.6114Z" fill="#599D2E"/>
<path d="M30.424 20.2261C32.4248 20.2261 34.053 18.5979 34.053 16.597C34.053 14.5962 32.4248 12.968 30.424 12.968C28.4231 12.968 26.7949 14.5962 26.7949 16.597C26.7949 18.5979 28.4231 20.2261 30.424 20.2261ZM30.424 15.3874C31.0905 15.3874 31.6336 15.9293 31.6336 16.597C31.6336 17.2648 31.0905 17.8067 30.424 17.8067C29.7574 17.8067 29.2143 17.2648 29.2143 16.597C29.2143 15.9293 29.7574 15.3874 30.424 15.3874Z" fill="#599D2E"/>
<path d="M78.8126 44.4192C76.8118 44.4192 75.1836 46.0474 75.1836 48.0482C75.1836 50.049 76.8118 51.6773 78.8126 51.6773C80.8134 51.6773 82.4417 50.049 82.4417 48.0482C82.4417 46.0474 80.8134 44.4192 78.8126 44.4192ZM78.8126 49.2579C78.1461 49.2579 77.6029 48.716 77.6029 48.0482C77.6029 47.3805 78.1461 46.8385 78.8126 46.8385C79.4792 46.8385 80.0223 47.3805 80.0223 48.0482C80.0223 48.716 79.4792 49.2579 78.8126 49.2579Z" fill="#599D2E"/>
<path d="M79.968 39.6684C79.9862 39.2353 80.0212 38.8022 80.0212 38.3704C80.0212 32.8567 78.5164 27.4966 75.6906 22.8018C76.9281 20.6244 77.6019 18.1409 77.6019 15.6236V15.3865C77.6019 7.38205 71.0902 0.870361 63.0858 0.870361C57.7172 0.870361 53.0297 3.80746 50.5184 8.15262C45.8285 8.04496 41.0672 9.04536 36.8164 11.0595C35.262 9.26794 32.9757 8.12843 30.4245 8.12843C25.7551 8.12843 21.9567 11.928 21.9567 16.5962C21.9567 18.4179 22.5591 20.2216 23.6503 21.6756L24.1511 22.3433C21.3555 26.8058 19.7902 31.8853 19.5821 37.1607H17.118C15.7837 37.1607 14.6987 38.2458 14.6987 39.58V63.7736C13.3644 63.7736 12.2793 64.8587 12.2793 66.1929V68.6123C12.2793 69.9466 13.3644 71.0317 14.6987 71.0317H20.366C21.7281 73.8877 24.6362 75.8704 28.0051 75.8704C31.3741 75.8704 34.2821 73.8877 35.6442 71.0317H49.3983C50.7603 73.8877 53.6684 75.8704 57.0374 75.8704C60.4063 75.8704 63.3144 73.8877 64.6765 71.0317H67.9245C69.2587 71.0317 70.3438 69.9466 70.3438 68.6123V65.2808C70.3438 64.9857 70.3075 64.6905 70.2362 64.4002L69.462 61.3034C71.2644 59.7563 72.872 58.0119 74.262 56.0933L78.8116 62.1611L85.5857 53.1284C86.6781 51.6732 87.2793 49.8683 87.2793 48.0478C87.2793 43.7728 84.0906 40.2357 79.968 39.6684ZM63.0858 3.28972C69.7559 3.28972 75.1825 8.71633 75.1825 15.3865V15.6224C75.1825 18.32 74.2644 20.9752 72.5974 23.0958L63.0858 35.2034L53.5741 23.0958C51.9071 20.9752 50.989 18.3212 50.989 15.6224V15.3865C50.989 8.71633 56.4156 3.28972 63.0858 3.28972ZM30.4245 10.5478C33.7595 10.5478 36.4728 13.2611 36.4728 16.5962C36.4728 17.8966 36.0434 19.1861 35.2632 20.224L30.4245 26.6764L25.5857 20.224C24.8055 19.1861 24.3761 17.8966 24.3761 16.5962C24.3761 13.2611 27.0894 10.5478 30.4245 10.5478ZM17.118 39.58H26.7954V48.7954L32.8438 45.7712L38.8922 48.7954V39.58H48.5696V63.7736H35.6442C34.2821 60.9175 31.3741 58.9349 28.0051 58.9349C24.6362 58.9349 21.7281 60.9175 20.366 63.7736H17.118V39.58ZM29.2148 39.58H36.4728V44.8808L32.8438 43.0663L29.2148 44.8808V39.58ZM50.989 46.8381H62.4059C62.9612 46.8381 63.445 47.2155 63.5793 47.7538L63.9555 49.2575H58.247C56.9128 49.2575 55.8277 50.3425 55.8277 51.6768V54.0962C55.8277 55.4304 56.9128 56.5155 58.247 56.5155H65.77L67.5845 63.7736H64.6765C63.3144 60.9175 60.4063 58.9349 57.0374 58.9349C54.6688 58.9349 52.5277 59.9147 50.989 61.4885V46.8381ZM65.1652 54.0962H58.247V51.6768H64.5603L65.1652 54.0962ZM14.6987 68.6123V66.1929H19.6341C19.5773 66.5897 19.5374 66.9913 19.5374 67.4026C19.5374 67.8139 19.5773 68.2155 19.6341 68.6123H14.6987ZM28.0051 73.451C24.67 73.451 21.9567 70.7377 21.9567 67.4026C21.9567 64.0675 24.67 61.3542 28.0051 61.3542C31.3402 61.3542 34.0535 64.0675 34.0535 67.4026C34.0535 70.7377 31.3402 73.451 28.0051 73.451ZM36.3761 68.6123C36.4329 68.2155 36.4728 67.8139 36.4728 67.4026C36.4728 66.9913 36.4329 66.5897 36.3761 66.1929H48.6664C48.6095 66.5897 48.5696 66.9913 48.5696 67.4026C48.5696 67.8139 48.6095 68.2155 48.6664 68.6123H36.3761ZM57.0374 73.451C53.7023 73.451 50.989 70.7377 50.989 67.4026C50.989 64.0675 53.7023 61.3542 57.0374 61.3542C60.3724 61.3542 63.0858 64.0675 63.0858 67.4026C63.0858 70.7377 60.3724 73.451 57.0374 73.451ZM65.4083 68.6123C65.4652 68.2155 65.5051 67.8139 65.5051 67.4026C65.5051 66.9913 65.4652 66.5897 65.4083 66.1929H67.9245V68.6123H65.4083ZM68.8015 58.6627L65.9273 47.1671C65.522 45.5498 64.0741 44.4188 62.4059 44.4188H50.989V39.58C50.989 38.2458 49.9039 37.1607 48.5696 37.1607H22.0003C22.1938 32.6534 23.4567 28.3034 25.7103 24.424L30.4245 30.7095L37.1987 21.6768C38.291 20.2216 38.8922 18.4167 38.8922 16.5962C38.8922 15.3514 38.6152 14.172 38.1301 13.1062C41.6745 11.4647 45.4607 10.6083 49.4116 10.5587C48.8769 12.072 48.5696 13.6917 48.5696 15.3865V15.6224C48.5696 18.8607 49.6716 22.047 51.6712 24.5909L63.0858 39.1179L74.1785 24.9998C76.42 29.0837 77.6019 33.6683 77.6019 38.3704C77.6019 38.8071 77.568 39.2462 77.5487 39.6853C73.4781 40.2986 70.3438 43.8091 70.3438 48.0478C70.3438 49.8696 70.9462 51.6732 72.0374 53.1272L72.7353 54.0587C71.5898 55.7317 70.2797 57.2776 68.8015 58.6627ZM83.6503 51.6756L78.8116 58.128L73.9728 51.6756C73.1926 50.6377 72.7632 49.3482 72.7632 48.0478C72.7632 44.7127 75.4765 41.9994 78.8116 41.9994C82.1466 41.9994 84.8599 44.7127 84.8599 48.0478C84.8599 49.3482 84.4305 50.6377 83.6503 51.6756Z" fill="#599D2E"/>
<path d="M63.0856 25.0631C68.4215 25.0631 72.763 20.7216 72.763 15.3857C72.763 10.0498 68.4215 5.70825 63.0856 5.70825C57.7497 5.70825 53.4082 10.0498 53.4082 15.3857C53.4082 20.7216 57.7497 25.0631 63.0856 25.0631ZM63.0856 8.12761C67.0884 8.12761 70.3437 11.3828 70.3437 15.3857C70.3437 19.3885 67.0884 22.6437 63.0856 22.6437C59.0828 22.6437 55.8276 19.3885 55.8276 15.3857C55.8276 11.3828 59.0828 8.12761 63.0856 8.12761Z" fill="#599D2E"/>
<path d="M41.3125 32.3215H43.7319V34.7409H41.3125V32.3215Z" fill="#599D2E"/>
<path d="M46.1504 32.3215H48.5697V34.7409H46.1504V32.3215Z" fill="#599D2E"/>
<path d="M50.9883 32.3215H53.4076V34.7409H50.9883V32.3215Z" fill="#599D2E"/>
</g>
<defs>
<clipPath id="clip0_1_166">
<rect width="75" height="75" fill="white" transform="translate(12.2793 0.870361)"/>
</clipPath>
</defs>
</svg>
