<svg width="117" height="136" viewBox="0 0 117 136" fill="none" xmlns="http://www.w3.org/2000/svg">
<path d="M9.94445 117.253L6.98445 112.153H4.26445V117.253H1.96445V103.253H7.56445C8.81779 103.253 9.87779 103.693 10.7445 104.573C11.6245 105.44 12.0645 106.5 12.0645 107.753C12.0645 108.647 11.8045 109.467 11.2845 110.213C10.7778 110.947 10.1111 111.48 9.28445 111.813L12.4645 117.253H9.94445ZM4.26445 105.413V110.093H7.56445C8.17779 110.093 8.69779 109.867 9.12445 109.413C9.55112 108.96 9.76445 108.407 9.76445 107.753C9.76445 107.1 9.55112 106.547 9.12445 106.093C8.69779 105.64 8.17779 105.413 7.56445 105.413H4.26445ZM16.5301 115.053H22.7301V117.253H14.2301V103.253H22.6301V105.453H16.5301V109.093H22.1301V111.273H16.5301V115.053ZM34.1509 117.253L33.1709 114.433H27.2109L26.2309 117.253H23.7309L28.8109 103.253H31.5709L36.6309 117.253H34.1509ZM27.9709 112.273H32.4109L30.1909 105.953L27.9709 112.273ZM40.4363 115.053H46.1363V117.253H38.1363V103.253H40.4363V115.053ZM55.1434 115.053H61.3434V117.253H52.8434V103.253H61.2434V105.453H55.1434V109.093H60.7434V111.273H55.1434V115.053ZM68.1088 117.513C66.7622 117.513 65.6155 117.207 64.6688 116.593C63.7355 115.98 63.0822 115.14 62.7088 114.073L64.6888 112.913C65.2488 114.487 66.4088 115.273 68.1688 115.273C69.0355 115.273 69.6822 115.107 70.1088 114.773C70.5488 114.427 70.7688 113.98 70.7688 113.433C70.7688 112.86 70.5355 112.427 70.0688 112.133C69.6022 111.827 68.7755 111.493 67.5888 111.133C66.9222 110.933 66.3822 110.747 65.9688 110.573C65.5555 110.4 65.1155 110.16 64.6488 109.853C64.1955 109.533 63.8555 109.14 63.6288 108.673C63.4022 108.207 63.2888 107.66 63.2888 107.033C63.2888 105.793 63.7288 104.813 64.6088 104.093C65.4888 103.36 66.5488 102.993 67.7888 102.993C68.9088 102.993 69.8888 103.267 70.7288 103.813C71.5688 104.36 72.2155 105.113 72.6688 106.073L70.7288 107.193C70.1422 105.887 69.1622 105.233 67.7888 105.233C67.1222 105.233 66.5888 105.393 66.1888 105.713C65.7888 106.02 65.5888 106.44 65.5888 106.973C65.5888 107.493 65.7888 107.907 66.1888 108.213C66.6022 108.507 67.3422 108.82 68.4088 109.153C68.9422 109.327 69.3288 109.46 69.5688 109.553C69.8222 109.633 70.1688 109.767 70.6088 109.953C71.0622 110.14 71.4022 110.327 71.6288 110.513C71.8555 110.7 72.0955 110.933 72.3488 111.213C72.6155 111.493 72.8022 111.813 72.9088 112.173C73.0155 112.533 73.0688 112.94 73.0688 113.393C73.0688 114.66 72.6088 115.667 71.6888 116.413C70.7822 117.147 69.5888 117.513 68.1088 117.513ZM83.6426 103.253V105.453H79.7026V117.253H77.4026V105.453H73.4426V103.253H83.6426ZM93.4673 117.253L92.4873 114.433H86.5273L85.5473 117.253H83.0473L88.1273 103.253H90.8873L95.9473 117.253H93.4673ZM87.2873 112.273H91.7273L89.5073 105.953L87.2873 112.273ZM105.557 103.253V105.453H101.617V117.253H99.3166V105.453H95.3566V103.253H105.557ZM109.557 115.053H115.757V117.253H107.257V103.253H115.657V105.453H109.557V109.093H115.157V111.273H109.557V115.053Z" fill="white"/>
<g clip-path="url(#clip0_1_182)">
<path d="M41.6142 50.8665C39.7069 50.8665 38.1542 52.4192 38.1542 54.3279C38.1542 56.2336 39.7069 57.7849 41.6142 57.7849C43.5214 57.7849 45.0741 56.2336 45.0741 54.3279C45.0741 52.4192 43.5214 50.8665 41.6142 50.8665ZM41.6142 55.4412C40.9989 55.4412 40.4979 54.9417 40.4979 54.3279C40.4979 53.7112 40.9989 53.2102 41.6142 53.2102C42.2294 53.2102 42.7304 53.7112 42.7304 54.3279C42.7304 54.9417 42.2294 55.4412 41.6142 55.4412ZM47.4809 26.4036H55.0292C55.6767 26.4036 56.2011 25.8792 56.2011 25.2317V17.6921C56.2011 17.0447 55.6767 16.5203 55.0292 16.5203H47.4809C46.8334 16.5203 46.309 17.0447 46.309 17.6921V25.2317C46.309 25.8792 46.8349 26.4036 47.4809 26.4036ZM48.6527 18.8655H53.8573V24.0613H48.6527V18.8655ZM59.5145 26.4036H67.06C67.7074 26.4036 68.2318 25.8792 68.2318 25.2317V17.6921C68.2318 17.0447 67.7074 16.5203 67.06 16.5203H59.516C58.8685 16.5203 58.3441 17.0447 58.3441 17.6921V25.2317C58.3427 25.8792 58.8671 26.4036 59.5145 26.4036ZM60.6864 18.8655H65.8881V24.0613H60.6879V18.8655H60.6864ZM47.4809 38.4182H55.0292C55.6767 38.4182 56.2011 37.8938 56.2011 37.2463V29.7112C56.2011 29.0637 55.6767 28.5393 55.0292 28.5393H47.4809C46.8334 28.5393 46.309 29.0637 46.309 29.7112V37.2463C46.309 37.8938 46.8349 38.4182 47.4809 38.4182ZM48.6527 30.8831H53.8573V36.0745H48.6527V30.8831ZM59.5145 38.4182H67.06C67.7074 38.4182 68.2318 37.8938 68.2318 37.2463V29.7112C68.2318 29.0637 67.7074 28.5393 67.06 28.5393H59.516C58.8685 28.5393 58.3441 29.0637 58.3441 29.7112V37.2463C58.3427 37.8938 58.8671 38.4182 59.5145 38.4182ZM60.6864 30.8831H65.8881V36.0745H60.6879V30.8831H60.6864ZM86.015 40.5525H78.4667C77.8192 40.5525 77.2948 41.0769 77.2948 41.7244V49.2639C77.2948 49.9114 77.8192 50.4358 78.4667 50.4358H86.015C86.6625 50.4358 87.1869 49.9114 87.1869 49.2639V41.7244C87.1869 41.0769 86.661 40.5525 86.015 40.5525ZM84.8432 48.092H79.6386V42.8962H84.8432V48.092ZM94.892 72.0041H92.7255V38.3083C92.7255 37.8674 92.4779 37.4646 92.0854 37.2639L74.0985 28.1101V10.7927C74.0985 10.1453 73.5741 9.62085 72.9267 9.62085H70.7265V3.56372C70.7265 2.91626 70.202 2.39185 69.5546 2.39185H44.9862C44.3388 2.39185 43.8144 2.91626 43.8144 3.56372V9.61938H41.6142C40.9667 9.61938 40.4423 10.1438 40.4423 10.7913V23.8723H28.2694C27.622 23.8723 27.0976 24.3967 27.0976 25.0442V51.2517L21.5458 55.2991C21.2938 55.4822 21.1254 55.759 21.0785 56.0652C21.0302 56.3728 21.1078 56.6863 21.2909 56.9382L23.6449 60.1521C23.8749 60.4656 24.2309 60.6311 24.5912 60.6311C24.8314 60.6311 25.0731 60.5579 25.2811 60.4055L27.0976 59.0813V72.0012H24.9311C24.2836 72.0012 23.7592 72.5256 23.7592 73.1731C23.7592 73.8206 24.2836 74.345 24.9311 74.345H94.892C95.5395 74.345 96.0639 73.8206 96.0639 73.1731C96.0639 72.5256 95.5395 72.0041 94.892 72.0041ZM79.6371 57.3059L79.9052 56.9397C80.0883 56.6892 80.1645 56.3743 80.1176 56.0681C80.0707 55.762 79.9022 55.4851 79.6503 55.302L79.6371 55.2932V54.9167H84.8417V60.1082H79.6371V57.3059ZM77.3212 56.5032L76.3544 57.8245L60.2763 46.0984C60.0712 45.949 59.828 45.8728 59.5863 45.8728C59.3446 45.8728 59.1015 45.9475 58.8964 46.0984L53.9818 49.6829L52.5902 48.6663L59.5863 43.5671L77.3212 56.5032ZM46.1581 4.7356H68.3827V9.61938H46.1581V4.7356ZM42.786 11.9646H71.7548V49.5437L60.2763 41.1721C59.8646 40.8718 59.3065 40.8718 58.8949 41.1721L50.598 47.219L42.786 41.5237V11.9646ZM40.4423 36.0745H34.6181V30.8831H40.4423V36.0745ZM29.4413 26.2175H40.4423V28.5393H33.4462C32.7987 28.5393 32.2743 29.0637 32.2743 29.7112V37.2463C32.2743 37.8938 32.7987 38.4182 33.4462 38.4182H40.4423V41.5237L29.4413 49.5452V26.2175ZM24.8446 57.8259L23.8749 56.5032L41.6142 43.5701L59.3534 56.5046L58.3866 57.8259L42.3041 46.0984C41.8925 45.7981 41.3344 45.7981 40.9228 46.0984L24.8446 57.8259ZM38.1601 72.0041V63.905H45.0683V72.0041H38.1601ZM47.412 72.0041V62.7332C47.412 62.0857 46.8876 61.5613 46.2401 61.5613H36.9882C36.3407 61.5613 35.8163 62.0857 35.8163 62.7332V72.0041H29.4413V57.3748L41.6142 48.4963L53.787 57.3718V72.0041H47.412ZM56.1322 72.0041V59.0813L57.953 60.4084C58.476 60.7893 59.2084 60.675 59.5893 60.1536L61.9389 56.9397C62.122 56.6892 62.1981 56.3743 62.1513 56.0666C62.1029 55.759 61.9345 55.4836 61.684 55.3005L55.9696 51.1345L59.5863 48.4963L71.7562 57.3718V72.0041H56.1322ZM74.0985 72.0041V59.0813L75.9193 60.4084C76.1273 60.5608 76.369 60.634 76.6093 60.634C76.8524 60.634 77.0927 60.5564 77.2948 60.4114V61.2786C77.2948 61.926 77.8192 62.4504 78.4667 62.4504H86.015C86.6625 62.4504 87.1869 61.926 87.1869 61.2786V53.7434C87.1869 53.0959 86.6625 52.5715 86.015 52.5715H78.4667C77.872 52.5715 77.3812 53.0154 77.3065 53.5911L74.1 51.2532V30.7395L90.3832 39.0261V72.0041H74.0985Z" fill="#599D2E"/>
</g>
<defs>
<clipPath id="clip0_1_182">
<rect width="75" height="75" fill="white" transform="translate(21.0645 0.870361)"/>
</clipPath>
</defs>
</svg>
