<svg width="93" height="81" viewBox="0 0 93 81" fill="none" xmlns="http://www.w3.org/2000/svg">
<g clip-path="url(#clip0_1_683)">
<path d="M22.7031 9.29365L45.7394 1.08594L69.3957 9.14771L65.5655 39.6256L45.7394 50.6056L26.2233 39.7715L22.7031 9.29365Z" fill="#E23237"/>
<mask id="mask0_1_683" style="mask-type:alpha" maskUnits="userSpaceOnUse" x="22" y="0" width="48" height="51">
<path d="M22.6836 9.1667L45.7199 0.958984L69.3762 9.02076L65.546 39.4986L45.7199 50.4786L26.2038 39.6445L22.6836 9.1667Z" fill="white"/>
</mask>
<g mask="url(#mask0_1_683)">
<path d="M69.3752 9.02271L45.7188 0.960938V50.4806L65.5448 39.5188L69.3752 9.02271Z" fill="#B52E31"/>
<path fill-rule="evenodd" clip-rule="evenodd" d="M31.4004 38.6792L45.7547 6.74219L60.8021 38.7704L55.6769 38.6792L52.5215 31.3835H45.7912H45.7729H39.6445L36.7627 38.588L31.4004 38.6792ZM50.6428 27.1155L45.7912 16.9744L41.5232 27.1155H45.7547H45.9918H50.6428Z" fill="white"/>
<g style="mix-blend-mode:color">
<path d="M69.5391 0.832031H22.6641V50.832H69.5391V0.832031Z" fill="#0D1D33"/>
</g>
</g>
</g>
<path d="M9.35197 71.97L7.66447 67.5975C7.61447 67.4675 7.56197 67.3175 7.50697 67.1475C7.45197 66.9725 7.39947 66.7875 7.34947 66.5925C7.24447 66.9975 7.13697 67.335 7.02697 67.605L5.33947 71.97H9.35197ZM12.382 75.96H11.257C11.127 75.96 11.022 75.9275 10.942 75.8625C10.862 75.7975 10.802 75.715 10.762 75.615L9.75697 73.02H4.93447L3.92947 75.615C3.89947 75.705 3.84197 75.785 3.75697 75.855C3.67197 75.925 3.56697 75.96 3.44197 75.96H2.31697L6.61447 65.2125H8.08447L12.382 75.96ZM25.5033 65.2125V75.96H24.7758C24.6608 75.96 24.5633 75.94 24.4833 75.9C24.4083 75.86 24.3333 75.7925 24.2583 75.6975L18.0408 67.5975C18.0508 67.7225 18.0583 67.845 18.0633 67.965C18.0683 68.085 18.0708 68.1975 18.0708 68.3025V75.96H16.7958V65.2125H17.5458C17.6108 65.2125 17.6658 65.2175 17.7108 65.2275C17.7558 65.2325 17.7958 65.245 17.8308 65.265C17.8658 65.28 17.9008 65.305 17.9358 65.34C17.9708 65.37 18.0083 65.41 18.0483 65.46L24.2658 73.5525C24.2558 73.4225 24.2458 73.2975 24.2358 73.1775C24.2308 73.0525 24.2283 72.935 24.2283 72.825V65.2125H25.5033ZM39.9809 70.7925V74.9175C39.4409 75.3075 38.8634 75.6 38.2484 75.795C37.6384 75.985 36.9684 76.08 36.2384 76.08C35.3734 76.08 34.5934 75.9475 33.8984 75.6825C33.2034 75.4125 32.6084 75.0375 32.1134 74.5575C31.6234 74.0725 31.2459 73.4925 30.9809 72.8175C30.7159 72.1425 30.5834 71.4 30.5834 70.59C30.5834 69.77 30.7109 69.0225 30.9659 68.3475C31.2259 67.6725 31.5934 67.095 32.0684 66.615C32.5434 66.13 33.1209 65.755 33.8009 65.49C34.4809 65.225 35.2409 65.0925 36.0809 65.0925C36.5059 65.0925 36.9009 65.125 37.2659 65.19C37.6309 65.25 37.9684 65.34 38.2784 65.46C38.5884 65.575 38.8759 65.7175 39.1409 65.8875C39.4059 66.0525 39.6534 66.24 39.8834 66.45L39.4709 67.11C39.4059 67.21 39.3209 67.275 39.2159 67.305C39.1159 67.33 39.0034 67.305 38.8784 67.23C38.7584 67.16 38.6209 67.075 38.4659 66.975C38.3109 66.875 38.1209 66.78 37.8959 66.69C37.6759 66.595 37.4134 66.515 37.1084 66.45C36.8084 66.385 36.4509 66.3525 36.0359 66.3525C35.4309 66.3525 34.8834 66.4525 34.3934 66.6525C33.9034 66.8475 33.4859 67.13 33.1409 67.5C32.7959 67.865 32.5309 68.31 32.3459 68.835C32.1609 69.355 32.0684 69.94 32.0684 70.59C32.0684 71.265 32.1634 71.87 32.3534 72.405C32.5484 72.935 32.8234 73.3875 33.1784 73.7625C33.5384 74.1325 33.9734 74.415 34.4834 74.61C34.9934 74.805 35.5659 74.9025 36.2009 74.9025C36.7009 74.9025 37.1434 74.8475 37.5284 74.7375C37.9184 74.6225 38.2984 74.465 38.6684 74.265V71.9025H36.9959C36.9009 71.9025 36.8234 71.875 36.7634 71.82C36.7084 71.765 36.6809 71.6975 36.6809 71.6175V70.7925H39.9809ZM49.3554 74.805C49.8004 74.805 50.1979 74.73 50.5479 74.58C50.8979 74.43 51.1929 74.22 51.4329 73.95C51.6779 73.68 51.8629 73.3575 51.9879 72.9825C52.1179 72.6075 52.1829 72.195 52.1829 71.745V65.2125H53.6305V71.745C53.6305 72.365 53.5304 72.94 53.3304 73.47C53.1354 74 52.8529 74.46 52.4829 74.85C52.1179 75.235 51.6704 75.5375 51.1404 75.7575C50.6104 75.9775 50.0154 76.0875 49.3554 76.0875C48.6954 76.0875 48.1004 75.9775 47.5704 75.7575C47.0404 75.5375 46.5904 75.235 46.2204 74.85C45.8504 74.46 45.5654 74 45.3654 73.47C45.1704 72.94 45.0729 72.365 45.0729 71.745V65.2125H46.5204V71.7375C46.5204 72.1875 46.5829 72.6 46.7079 72.975C46.8379 73.35 47.0229 73.6725 47.2629 73.9425C47.5079 74.2125 47.8054 74.425 48.1554 74.58C48.5104 74.73 48.9104 74.805 49.3554 74.805ZM65.3357 74.7375V75.96H59.2382V65.2125H60.6857V74.7375H65.3357ZM75.6508 71.97L73.9633 67.5975C73.9133 67.4675 73.8608 67.3175 73.8058 67.1475C73.7508 66.9725 73.6983 66.7875 73.6483 66.5925C73.5433 66.9975 73.4358 67.335 73.3258 67.605L71.6383 71.97H75.6508ZM78.6808 75.96H77.5558C77.4258 75.96 77.3208 75.9275 77.2408 75.8625C77.1608 75.7975 77.1008 75.715 77.0608 75.615L76.0558 73.02H71.2333L70.2283 75.615C70.1983 75.705 70.1408 75.785 70.0558 75.855C69.9708 75.925 69.8658 75.96 69.7408 75.96H68.6158L72.9133 65.2125H74.3833L78.6808 75.96ZM86.0722 70.4175C86.4922 70.4175 86.8622 70.3675 87.1822 70.2675C87.5072 70.1625 87.7772 70.0175 87.9922 69.8325C88.2122 69.6425 88.3772 69.4175 88.4872 69.1575C88.5972 68.8975 88.6522 68.61 88.6522 68.295C88.6522 67.655 88.4422 67.1725 88.0222 66.8475C87.6022 66.5225 86.9722 66.36 86.1322 66.36H84.5422V70.4175H86.0722ZM91.0372 75.96H89.7472C89.4822 75.96 89.2872 75.8575 89.1622 75.6525L86.3722 71.8125C86.2872 71.6925 86.1947 71.6075 86.0947 71.5575C85.9997 71.5025 85.8497 71.475 85.6447 71.475H84.5422V75.96H83.0947V65.2125H86.1322C86.8122 65.2125 87.3997 65.2825 87.8947 65.4225C88.3897 65.5575 88.7972 65.755 89.1172 66.015C89.4422 66.275 89.6822 66.59 89.8372 66.96C89.9922 67.325 90.0697 67.735 90.0697 68.19C90.0697 68.57 90.0097 68.925 89.8897 69.255C89.7697 69.585 89.5947 69.8825 89.3647 70.1475C89.1397 70.4075 88.8622 70.63 88.5322 70.815C88.2072 71 87.8372 71.14 87.4222 71.235C87.6072 71.34 87.7672 71.4925 87.9022 71.6925L91.0372 75.96Z" fill="#0D1D33"/>
<defs>
<clipPath id="clip0_1_683">
<rect width="50" height="50" fill="white" transform="translate(21.1211 0.958984)"/>
</clipPath>
</defs>
</svg>
