<svg width="81" height="81" viewBox="0 0 81 81" fill="none" xmlns="http://www.w3.org/2000/svg">
<g clip-path="url(#clip0_1_751)">
<path d="M59.793 0.959961H20.7305C17.7102 0.959961 15.2617 3.4084 15.2617 6.42871V45.4912C15.2617 48.5115 17.7102 50.96 20.7305 50.96H59.793C62.8133 50.96 65.2617 48.5115 65.2617 45.4912V6.42871C65.2617 3.4084 62.8133 0.959961 59.793 0.959961Z" fill="#708096"/>
<path d="M51.6637 19.3582V32.293C51.6637 36.7499 51.3376 38.8876 50.3595 40.7354C49.4534 42.5112 48.2577 43.6342 45.794 44.8663L40.6126 42.4024C43.0764 41.243 44.2721 40.2288 45.0329 38.6702C45.8302 37.076 46.0841 35.228 46.0841 30.3729V19.3582H51.6637ZM42.787 10.7412V36.569C39.9247 37.1124 37.8231 37.3297 35.5405 37.3297C28.7285 37.3297 25.1777 34.2503 25.1777 28.344C25.1777 22.6553 28.9462 18.9599 34.7795 18.9599C35.6852 18.9599 36.3735 19.0321 37.2071 19.2495V10.7412H42.787ZM35.3231 23.4524C32.497 23.4524 30.8664 25.1917 30.8664 28.235C30.8664 31.2065 32.4245 32.8368 35.287 32.8368C35.9026 32.8368 36.41 32.8006 37.2071 32.692V23.7421C36.555 23.5249 36.0116 23.4524 35.3231 23.4524ZM51.6637 10.7709V16.4958H46.0841V10.7709H51.6637Z" fill="#FFFFFD"/>
</g>
<path d="M12.3164 70.59C12.3164 71.395 12.1889 72.1275 11.9339 72.7875C11.6789 73.4475 11.3189 74.0125 10.8539 74.4825C10.3889 74.9525 9.82891 75.3175 9.17391 75.5775C8.52391 75.8325 7.80391 75.96 7.01391 75.96H3.00141V65.2125H7.01391C7.80391 65.2125 8.52391 65.3425 9.17391 65.6025C9.82891 65.8575 10.3889 66.2225 10.8539 66.6975C11.3189 67.1675 11.6789 67.7325 11.9339 68.3925C12.1889 69.0525 12.3164 69.785 12.3164 70.59ZM10.8239 70.59C10.8239 69.93 10.7339 69.34 10.5539 68.82C10.3739 68.3 10.1189 67.86 9.78891 67.5C9.45891 67.14 9.05891 66.865 8.58891 66.675C8.11891 66.485 7.59391 66.39 7.01391 66.39H4.45641V74.7825H7.01391C7.59391 74.7825 8.11891 74.6875 8.58891 74.4975C9.05891 74.3075 9.45891 74.035 9.78891 73.68C10.1189 73.32 10.3739 72.88 10.5539 72.36C10.7339 71.84 10.8239 71.25 10.8239 70.59ZM20.5755 72.2475C20.5755 72.8475 20.5005 73.385 20.3505 73.86C20.2055 74.335 19.988 74.7375 19.698 75.0675C19.413 75.3925 19.0605 75.6425 18.6405 75.8175C18.2205 75.9925 17.738 76.08 17.193 76.08C16.698 76.08 16.193 76.01 15.678 75.87C15.688 75.725 15.7005 75.5825 15.7155 75.4425C15.7305 75.2975 15.743 75.155 15.753 75.015C15.763 74.93 15.793 74.8625 15.843 74.8125C15.898 74.7575 15.9805 74.73 16.0905 74.73C16.1805 74.73 16.298 74.7525 16.443 74.7975C16.593 74.8425 16.793 74.865 17.043 74.865C17.373 74.865 17.668 74.815 17.928 74.715C18.188 74.615 18.4055 74.46 18.5805 74.25C18.7555 74.04 18.888 73.7725 18.978 73.4475C19.073 73.1175 19.1205 72.7275 19.1205 72.2775V65.2125H20.5755V72.2475ZM31.7743 71.97L30.0868 67.5975C30.0368 67.4675 29.9843 67.3175 29.9293 67.1475C29.8743 66.9725 29.8218 66.7875 29.7718 66.5925C29.6668 66.9975 29.5593 67.335 29.4493 67.605L27.7618 71.97H31.7743ZM34.8043 75.96H33.6793C33.5493 75.96 33.4443 75.9275 33.3643 75.8625C33.2843 75.7975 33.2243 75.715 33.1843 75.615L32.1793 73.02H27.3568L26.3518 75.615C26.3218 75.705 26.2643 75.785 26.1793 75.855C26.0943 75.925 25.9893 75.96 25.8643 75.96H24.7393L29.0368 65.2125H30.5068L34.8043 75.96ZM47.9257 65.2125V75.96H47.1982C47.0832 75.96 46.9857 75.94 46.9057 75.9C46.8307 75.86 46.7557 75.7925 46.6807 75.6975L40.4632 67.5975C40.4732 67.7225 40.4807 67.845 40.4857 67.965C40.4907 68.085 40.4932 68.1975 40.4932 68.3025V75.96H39.2182V65.2125H39.9682C40.0332 65.2125 40.0882 65.2175 40.1332 65.2275C40.1782 65.2325 40.2182 65.245 40.2532 65.265C40.2882 65.28 40.3232 65.305 40.3582 65.34C40.3932 65.37 40.4307 65.41 40.4707 65.46L46.6882 73.5525C46.6782 73.4225 46.6682 73.2975 46.6582 73.1775C46.6532 73.0525 46.6507 72.935 46.6507 72.825V65.2125H47.9257ZM62.4033 70.7925V74.9175C61.8633 75.3075 61.2858 75.6 60.6708 75.795C60.0608 75.985 59.3908 76.08 58.6608 76.08C57.7958 76.08 57.0158 75.9475 56.3208 75.6825C55.6258 75.4125 55.0308 75.0375 54.5358 74.5575C54.0458 74.0725 53.6683 73.4925 53.4033 72.8175C53.1383 72.1425 53.0058 71.4 53.0058 70.59C53.0058 69.77 53.1333 69.0225 53.3883 68.3475C53.6483 67.6725 54.0158 67.095 54.4908 66.615C54.9658 66.13 55.5433 65.755 56.2233 65.49C56.9033 65.225 57.6633 65.0925 58.5033 65.0925C58.9283 65.0925 59.3233 65.125 59.6883 65.19C60.0533 65.25 60.3908 65.34 60.7008 65.46C61.0108 65.575 61.2983 65.7175 61.5633 65.8875C61.8283 66.0525 62.0758 66.24 62.3058 66.45L61.8933 67.11C61.8283 67.21 61.7433 67.275 61.6383 67.305C61.5383 67.33 61.4258 67.305 61.3008 67.23C61.1808 67.16 61.0433 67.075 60.8883 66.975C60.7333 66.875 60.5433 66.78 60.3183 66.69C60.0983 66.595 59.8358 66.515 59.5308 66.45C59.2308 66.385 58.8733 66.3525 58.4583 66.3525C57.8533 66.3525 57.3058 66.4525 56.8158 66.6525C56.3258 66.8475 55.9083 67.13 55.5633 67.5C55.2183 67.865 54.9533 68.31 54.7683 68.835C54.5833 69.355 54.4908 69.94 54.4908 70.59C54.4908 71.265 54.5858 71.87 54.7758 72.405C54.9708 72.935 55.2458 73.3875 55.6008 73.7625C55.9608 74.1325 56.3958 74.415 56.9058 74.61C57.4158 74.805 57.9883 74.9025 58.6233 74.9025C59.1233 74.9025 59.5658 74.8475 59.9508 74.7375C60.3408 74.6225 60.7208 74.465 61.0908 74.265V71.9025H59.4183C59.3233 71.9025 59.2458 71.875 59.1858 71.82C59.1308 71.765 59.1033 71.6975 59.1033 71.6175V70.7925H62.4033ZM77.5603 70.59C77.5603 71.395 77.4328 72.135 77.1778 72.81C76.9228 73.48 76.5628 74.0575 76.0978 74.5425C75.6328 75.0275 75.0728 75.405 74.4178 75.675C73.7678 75.94 73.0478 76.0725 72.2578 76.0725C71.4678 76.0725 70.7478 75.94 70.0978 75.675C69.4478 75.405 68.8903 75.0275 68.4253 74.5425C67.9603 74.0575 67.6003 73.48 67.3453 72.81C67.0903 72.135 66.9628 71.395 66.9628 70.59C66.9628 69.785 67.0903 69.0475 67.3453 68.3775C67.6003 67.7025 67.9603 67.1225 68.4253 66.6375C68.8903 66.1475 69.4478 65.7675 70.0978 65.4975C70.7478 65.2275 71.4678 65.0925 72.2578 65.0925C73.0478 65.0925 73.7678 65.2275 74.4178 65.4975C75.0728 65.7675 75.6328 66.1475 76.0978 66.6375C76.5628 67.1225 76.9228 67.7025 77.1778 68.3775C77.4328 69.0475 77.5603 69.785 77.5603 70.59ZM76.0678 70.59C76.0678 69.93 75.9778 69.3375 75.7978 68.8125C75.6178 68.2875 75.3628 67.845 75.0328 67.485C74.7028 67.12 74.3028 66.84 73.8328 66.645C73.3628 66.45 72.8378 66.3525 72.2578 66.3525C71.6828 66.3525 71.1603 66.45 70.6903 66.645C70.2203 66.84 69.8178 67.12 69.4828 67.485C69.1528 67.845 68.8978 68.2875 68.7178 68.8125C68.5378 69.3375 68.4478 69.93 68.4478 70.59C68.4478 71.25 68.5378 71.8425 68.7178 72.3675C68.8978 72.8875 69.1528 73.33 69.4828 73.695C69.8178 74.055 70.2203 74.3325 70.6903 74.5275C71.1603 74.7175 71.6828 74.8125 72.2578 74.8125C72.8378 74.8125 73.3628 74.7175 73.8328 74.5275C74.3028 74.3325 74.7028 74.055 75.0328 73.695C75.3628 73.33 75.6178 72.8875 75.7978 72.3675C75.9778 71.8425 76.0678 71.25 76.0678 70.59Z" fill="#0D1D33"/>
<defs>
<clipPath id="clip0_1_751">
<rect width="50" height="50" fill="white" transform="translate(15.2617 0.959961)"/>
</clipPath>
</defs>
</svg>
