<svg width="64" height="81" viewBox="0 0 64 81" fill="none" xmlns="http://www.w3.org/2000/svg">
<g clip-path="url(#clip0_1_630)">
<mask id="mask0_1_630" style="mask-type:luminance" maskUnits="userSpaceOnUse" x="14" y="0" width="35" height="51">
<path d="M48.6971 0.958984H14.8262V50.959H48.6971V0.958984Z" fill="white"/>
</mask>
<g mask="url(#mask0_1_630)">
<path d="M23.2941 50.9597C27.9674 50.9597 31.7602 47.2264 31.7602 42.6264V34.293H23.2941C18.6209 34.293 14.8281 38.0263 14.8281 42.6264C14.8281 47.2264 18.6209 50.9597 23.2941 50.9597Z" fill="#E2EEFF"/>
<path d="M14.8281 25.9583C14.8281 21.3583 18.6209 17.625 23.2941 17.625H31.7602V34.2916H23.2941C18.6209 34.2916 14.8281 30.5583 14.8281 25.9583Z" fill="#8191A7"/>
<path d="M14.8281 9.29229C14.8281 4.69232 18.6209 0.958984 23.2942 0.958984H31.7602V17.6257H23.2942C18.6209 17.6257 14.8281 13.8923 14.8281 9.29229Z" fill="#38485E"/>
<path d="M31.7617 0.958984H40.2278C44.9011 0.958984 48.6938 4.69232 48.6938 9.29229C48.6938 13.8923 44.9011 17.6257 40.2278 17.6257H31.7617V0.958984Z" fill="#79899F"/>
<path d="M48.6938 25.9583C48.6938 30.5583 44.9011 34.2916 40.2278 34.2916C35.5545 34.2916 31.7617 30.5583 31.7617 25.9583C31.7617 21.3583 35.5545 17.625 40.2278 17.625C44.9011 17.625 48.6938 21.3583 48.6938 25.9583Z" fill="#A4B4CA"/>
</g>
</g>
<path d="M4.36754 66.3965V70.154H8.78504V71.339H4.36754V75.959H2.91254V65.2115H9.53504V66.3965H4.36754ZM15.849 75.959H14.394V65.2115H15.849V75.959ZM30.3281 70.7915V74.9165C29.7881 75.3065 29.2106 75.599 28.5956 75.794C27.9856 75.984 27.3156 76.079 26.5856 76.079C25.7206 76.079 24.9406 75.9465 24.2456 75.6815C23.5506 75.4115 22.9556 75.0365 22.4606 74.5565C21.9706 74.0715 21.5931 73.4915 21.3281 72.8165C21.0631 72.1415 20.9306 71.399 20.9306 70.589C20.9306 69.769 21.0581 69.0215 21.3131 68.3465C21.5731 67.6715 21.9406 67.094 22.4156 66.614C22.8906 66.129 23.4681 65.754 24.1481 65.489C24.8281 65.224 25.5881 65.0915 26.4281 65.0915C26.8531 65.0915 27.2481 65.124 27.6131 65.189C27.9781 65.249 28.3156 65.339 28.6256 65.459C28.9356 65.574 29.2231 65.7165 29.4881 65.8865C29.7531 66.0515 30.0006 66.239 30.2306 66.449L29.8181 67.109C29.7531 67.209 29.6681 67.274 29.5631 67.304C29.4631 67.329 29.3506 67.304 29.2256 67.229C29.1056 67.159 28.9681 67.074 28.8131 66.974C28.6581 66.874 28.4681 66.779 28.2431 66.689C28.0231 66.594 27.7606 66.514 27.4556 66.449C27.1556 66.384 26.7981 66.3515 26.3831 66.3515C25.7781 66.3515 25.2306 66.4515 24.7406 66.6515C24.2506 66.8465 23.8331 67.129 23.4881 67.499C23.1431 67.864 22.8781 68.309 22.6931 68.834C22.5081 69.354 22.4156 69.939 22.4156 70.589C22.4156 71.264 22.5106 71.869 22.7006 72.404C22.8956 72.934 23.1706 73.3865 23.5256 73.7615C23.8856 74.1315 24.3206 74.414 24.8306 74.609C25.3406 74.804 25.9131 74.9015 26.5481 74.9015C27.0481 74.9015 27.4906 74.8465 27.8756 74.7365C28.2656 74.6215 28.6456 74.464 29.0156 74.264V71.9015H27.3431C27.2481 71.9015 27.1706 71.874 27.1106 71.819C27.0556 71.764 27.0281 71.6965 27.0281 71.6165V70.7915H30.3281ZM46.7376 65.2115V75.959H45.4626V68.0615C45.4626 67.9565 45.4651 67.844 45.4701 67.724C45.4801 67.604 45.4901 67.4815 45.5001 67.3565L41.8101 74.0765C41.6951 74.3015 41.5201 74.414 41.2851 74.414H41.0751C40.8401 74.414 40.6651 74.3015 40.5501 74.0765L36.7851 67.3265C36.8151 67.5915 36.8301 67.8365 36.8301 68.0615V75.959H35.5551V65.2115H36.6276C36.7576 65.2115 36.8576 65.224 36.9276 65.249C36.9976 65.274 37.0651 65.344 37.1301 65.459L40.8426 72.074C40.9026 72.194 40.9601 72.319 41.0151 72.449C41.0751 72.579 41.1301 72.7115 41.1801 72.8465C41.2301 72.7115 41.2826 72.579 41.3376 72.449C41.3926 72.314 41.4526 72.1865 41.5176 72.0665L45.1626 65.459C45.2226 65.344 45.2876 65.274 45.3576 65.249C45.4326 65.224 45.5351 65.2115 45.6651 65.2115H46.7376ZM58.1933 71.969L56.5058 67.5965C56.4558 67.4665 56.4033 67.3165 56.3483 67.1465C56.2933 66.9715 56.2408 66.7865 56.1908 66.5915C56.0858 66.9965 55.9783 67.334 55.8683 67.604L54.1808 71.969H58.1933ZM61.2233 75.959H60.0983C59.9683 75.959 59.8633 75.9265 59.7833 75.8615C59.7033 75.7965 59.6433 75.714 59.6033 75.614L58.5983 73.019H53.7758L52.7708 75.614C52.7408 75.704 52.6833 75.784 52.5983 75.854C52.5133 75.924 52.4083 75.959 52.2833 75.959H51.1583L55.4558 65.2115H56.9258L61.2233 75.959Z" fill="#0D1D33"/>
<defs>
<clipPath id="clip0_1_630">
<rect width="33.871" height="50" fill="white" transform="translate(14.8262 0.958984)"/>
</clipPath>
</defs>
</svg>
