<svg width="129" height="81" viewBox="0 0 129 81" fill="none" xmlns="http://www.w3.org/2000/svg">
<g clip-path="url(#clip0_1_650)">
<path d="M48.2409 1.58398H80.5326C85.4284 1.58398 89.3867 5.54232 89.3867 10.4382V41.4798C89.3867 46.3756 85.4284 50.334 80.5326 50.334H48.2409C43.3451 50.334 39.3867 46.3756 39.3867 41.4798V10.4382C39.3867 5.54232 43.3451 1.58398 48.2409 1.58398Z" fill="#708096"/>
<path d="M63.5541 30.7513H55.8041L54.2207 35.6471C54.1791 35.8346 54.0124 35.9596 53.8249 35.9388H49.9082C49.6791 35.9388 49.6166 35.8138 49.6791 35.5638L56.3874 16.2513C56.4499 16.043 56.5124 15.8138 56.5957 15.5638C56.6791 15.1263 56.7207 14.668 56.7207 14.2096C56.6999 14.1055 56.7832 14.0013 56.8874 13.9805H56.9499H62.2832C62.4499 13.9805 62.5332 14.043 62.5541 14.1471L70.1582 35.6055C70.2207 35.8346 70.1582 35.9388 69.9499 35.9388H65.5957C65.4499 35.9596 65.3041 35.8555 65.2624 35.7096L63.5541 30.7513ZM57.0124 26.5221H62.3041C62.1791 26.0846 62.0124 25.5638 61.8249 25.0221C61.6374 24.4596 61.4499 23.8555 61.2624 23.2305C61.0541 22.5846 60.8666 21.9596 60.6582 21.3138C60.4499 20.668 60.2624 20.0638 60.0957 19.4596C59.9291 18.8763 59.7832 18.3346 59.6374 17.8346H59.5957C59.4082 18.7305 59.1791 19.6263 58.8874 20.5221C58.5749 21.5221 58.2624 22.5638 57.9291 23.6055C57.6374 24.668 57.3249 25.6471 57.0124 26.5221Z" fill="#F5F5F5"/>
<path d="M74.8039 17.6257C74.1164 17.6465 73.4498 17.3757 72.9498 16.8965C72.4706 16.3757 72.2206 15.6882 72.2414 14.9798C72.2206 14.2715 72.4914 13.6048 72.9914 13.1257C73.4914 12.6465 74.1581 12.3965 74.8456 12.3965C75.6581 12.3965 76.2831 12.6465 76.7414 13.1257C77.1998 13.6257 77.4498 14.2923 77.4289 14.9798C77.4498 15.6882 77.1998 16.3757 76.6998 16.8965C76.2206 17.3965 75.5123 17.6673 74.8039 17.6257ZM72.4706 35.709V19.6673C72.4706 19.459 72.5539 19.3757 72.7414 19.3757H76.8664C77.0539 19.3757 77.1373 19.4798 77.1373 19.6673V35.709C77.1373 35.9382 77.0539 36.0423 76.8664 36.0423H72.7831C72.5748 36.0423 72.4706 35.9173 72.4706 35.709Z" fill="#F5F5F5"/>
</g>
<path d="M4.17271 75.959H2.71771V65.2115H4.17271V75.959ZM16.0193 74.7365V75.959H9.92182V65.2115H11.3693V74.7365H16.0193ZM26.7244 74.7365V75.959H20.6269V65.2115H22.0744V74.7365H26.7244ZM35.084 74.804C35.529 74.804 35.9265 74.729 36.2765 74.579C36.6265 74.429 36.9215 74.219 37.1615 73.949C37.4065 73.679 37.5915 73.3565 37.7165 72.9815C37.8465 72.6065 37.9115 72.194 37.9115 71.744V65.2115H39.359V71.744C39.359 72.364 39.259 72.939 39.059 73.469C38.864 73.999 38.5815 74.459 38.2115 74.849C37.8465 75.234 37.399 75.5365 36.869 75.7565C36.339 75.9765 35.744 76.0865 35.084 76.0865C34.424 76.0865 33.829 75.9765 33.299 75.7565C32.769 75.5365 32.319 75.234 31.949 74.849C31.579 74.459 31.294 73.999 31.094 73.469C30.899 72.939 30.8015 72.364 30.8015 71.744V65.2115H32.249V71.7365C32.249 72.1865 32.3115 72.599 32.4365 72.974C32.5665 73.349 32.7515 73.6715 32.9915 73.9415C33.2365 74.2115 33.534 74.424 33.884 74.579C34.239 74.729 34.639 74.804 35.084 74.804ZM50.4642 66.8915C50.4192 66.9665 50.3692 67.024 50.3142 67.064C50.2642 67.099 50.2017 67.1165 50.1267 67.1165C50.0417 67.1165 49.9417 67.074 49.8267 66.989C49.7117 66.904 49.5667 66.8115 49.3917 66.7115C49.2217 66.6065 49.0142 66.5115 48.7692 66.4265C48.5292 66.3415 48.2367 66.299 47.8917 66.299C47.5667 66.299 47.2792 66.344 47.0292 66.434C46.7842 66.519 46.5767 66.6365 46.4067 66.7865C46.2417 66.9365 46.1167 67.114 46.0317 67.319C45.9467 67.519 45.9042 67.7365 45.9042 67.9715C45.9042 68.2715 45.9767 68.5215 46.1217 68.7215C46.2717 68.9165 46.4667 69.084 46.7067 69.224C46.9517 69.364 47.2267 69.4865 47.5317 69.5915C47.8417 69.6915 48.1567 69.7965 48.4767 69.9065C48.8017 70.0165 49.1167 70.1415 49.4217 70.2815C49.7317 70.4165 50.0067 70.589 50.2467 70.799C50.4917 71.009 50.6867 71.2665 50.8317 71.5715C50.9817 71.8765 51.0567 72.2515 51.0567 72.6965C51.0567 73.1665 50.9767 73.609 50.8167 74.024C50.6567 74.434 50.4217 74.7915 50.1117 75.0965C49.8067 75.4015 49.4292 75.6415 48.9792 75.8165C48.5342 75.9915 48.0267 76.079 47.4567 76.079C46.7567 76.079 46.1217 75.954 45.5517 75.704C44.9817 75.449 44.4942 75.1065 44.0892 74.6765L44.5092 73.9865C44.5492 73.9315 44.5967 73.8865 44.6517 73.8515C44.7117 73.8115 44.7767 73.7915 44.8467 73.7915C44.9117 73.7915 44.9842 73.819 45.0642 73.874C45.1492 73.924 45.2442 73.989 45.3492 74.069C45.4542 74.149 45.5742 74.2365 45.7092 74.3315C45.8442 74.4265 45.9967 74.514 46.1667 74.594C46.3417 74.674 46.5392 74.7415 46.7592 74.7965C46.9792 74.8465 47.2267 74.8715 47.5017 74.8715C47.8467 74.8715 48.1542 74.824 48.4242 74.729C48.6942 74.634 48.9217 74.5015 49.1067 74.3315C49.2967 74.1565 49.4417 73.949 49.5417 73.709C49.6417 73.469 49.6917 73.2015 49.6917 72.9065C49.6917 72.5815 49.6167 72.3165 49.4667 72.1115C49.3217 71.9015 49.1292 71.7265 48.8892 71.5865C48.6492 71.4465 48.3742 71.329 48.0642 71.234C47.7542 71.134 47.4392 71.034 47.1192 70.934C46.7992 70.829 46.4842 70.709 46.1742 70.574C45.8642 70.439 45.5892 70.264 45.3492 70.049C45.1092 69.834 44.9142 69.5665 44.7642 69.2465C44.6192 68.9215 44.5467 68.5215 44.5467 68.0465C44.5467 67.6665 44.6192 67.299 44.7642 66.944C44.9142 66.589 45.1292 66.274 45.4092 65.999C45.6942 65.724 46.0417 65.504 46.4517 65.339C46.8667 65.174 47.3417 65.0915 47.8767 65.0915C48.4767 65.0915 49.0217 65.1865 49.5117 65.3765C50.0067 65.5665 50.4417 65.8415 50.8167 66.2015L50.4642 66.8915ZM63.3788 66.434H59.8988V75.959H58.4513V66.434H54.9638V65.2115H63.3788V66.434ZM70.9511 70.4165C71.3711 70.4165 71.7411 70.3665 72.0611 70.2665C72.3861 70.1615 72.6561 70.0165 72.8711 69.8315C73.0911 69.6415 73.2561 69.4165 73.3661 69.1565C73.4761 68.8965 73.5311 68.609 73.5311 68.294C73.5311 67.654 73.3211 67.1715 72.9011 66.8465C72.4811 66.5215 71.8511 66.359 71.0111 66.359H69.4211V70.4165H70.9511ZM75.9161 75.959H74.6261C74.3611 75.959 74.1661 75.8565 74.0411 75.6515L71.2511 71.8115C71.1661 71.6915 71.0736 71.6065 70.9736 71.5565C70.8786 71.5015 70.7286 71.474 70.5236 71.474H69.4211V75.959H67.9736V65.2115H71.0111C71.6911 65.2115 72.2786 65.2815 72.7736 65.4215C73.2686 65.5565 73.6761 65.754 73.9961 66.014C74.3211 66.274 74.5611 66.589 74.7161 66.959C74.8711 67.324 74.9486 67.734 74.9486 68.189C74.9486 68.569 74.8886 68.924 74.7686 69.254C74.6486 69.584 74.4736 69.8815 74.2436 70.1465C74.0186 70.4065 73.7411 70.629 73.4111 70.814C73.0861 70.999 72.7161 71.139 72.3011 71.234C72.4861 71.339 72.6461 71.4915 72.7811 71.6915L75.9161 75.959ZM86.0854 71.969L84.3979 67.5965C84.3479 67.4665 84.2954 67.3165 84.2404 67.1465C84.1854 66.9715 84.1329 66.7865 84.0829 66.5915C83.9779 66.9965 83.8704 67.334 83.7604 67.604L82.0729 71.969H86.0854ZM89.1154 75.959H87.9904C87.8604 75.959 87.7554 75.9265 87.6754 75.8615C87.5954 75.7965 87.5354 75.714 87.4954 75.614L86.4904 73.019H81.6679L80.6629 75.614C80.6329 75.704 80.5754 75.784 80.4904 75.854C80.4054 75.924 80.3004 75.959 80.1754 75.959H79.0504L83.3479 65.2115H84.8179L89.1154 75.959ZM99.7421 66.434H96.2621V75.959H94.8146V66.434H91.3271V65.2115H99.7421V66.434ZM113.783 70.589C113.783 71.394 113.656 72.134 113.401 72.809C113.146 73.479 112.786 74.0565 112.321 74.5415C111.856 75.0265 111.296 75.404 110.641 75.674C109.991 75.939 109.271 76.0715 108.481 76.0715C107.691 76.0715 106.971 75.939 106.321 75.674C105.671 75.404 105.113 75.0265 104.648 74.5415C104.183 74.0565 103.823 73.479 103.568 72.809C103.313 72.134 103.186 71.394 103.186 70.589C103.186 69.784 103.313 69.0465 103.568 68.3765C103.823 67.7015 104.183 67.1215 104.648 66.6365C105.113 66.1465 105.671 65.7665 106.321 65.4965C106.971 65.2265 107.691 65.0915 108.481 65.0915C109.271 65.0915 109.991 65.2265 110.641 65.4965C111.296 65.7665 111.856 66.1465 112.321 66.6365C112.786 67.1215 113.146 67.7015 113.401 68.3765C113.656 69.0465 113.783 69.784 113.783 70.589ZM112.291 70.589C112.291 69.929 112.201 69.3365 112.021 68.8115C111.841 68.2865 111.586 67.844 111.256 67.484C110.926 67.119 110.526 66.839 110.056 66.644C109.586 66.449 109.061 66.3515 108.481 66.3515C107.906 66.3515 107.383 66.449 106.913 66.644C106.443 66.839 106.041 67.119 105.706 67.484C105.376 67.844 105.121 68.2865 104.941 68.8115C104.761 69.3365 104.671 69.929 104.671 70.589C104.671 71.249 104.761 71.8415 104.941 72.3665C105.121 72.8865 105.376 73.329 105.706 73.694C106.041 74.054 106.443 74.3315 106.913 74.5265C107.383 74.7165 107.906 74.8115 108.481 74.8115C109.061 74.8115 109.586 74.7165 110.056 74.5265C110.526 74.3315 110.926 74.054 111.256 73.694C111.586 73.329 111.841 72.8865 112.021 72.3665C112.201 71.8415 112.291 71.249 112.291 70.589ZM121.843 70.4165C122.263 70.4165 122.633 70.3665 122.953 70.2665C123.278 70.1615 123.548 70.0165 123.763 69.8315C123.983 69.6415 124.148 69.4165 124.258 69.1565C124.368 68.8965 124.423 68.609 124.423 68.294C124.423 67.654 124.213 67.1715 123.793 66.8465C123.373 66.5215 122.743 66.359 121.903 66.359H120.313V70.4165H121.843ZM126.808 75.959H125.518C125.253 75.959 125.058 75.8565 124.933 75.6515L122.143 71.8115C122.058 71.6915 121.965 71.6065 121.865 71.5565C121.77 71.5015 121.62 71.474 121.415 71.474H120.313V75.959H118.865V65.2115H121.903C122.583 65.2115 123.17 65.2815 123.665 65.4215C124.16 65.5565 124.568 65.754 124.888 66.014C125.213 66.274 125.453 66.589 125.608 66.959C125.763 67.324 125.84 67.734 125.84 68.189C125.84 68.569 125.78 68.924 125.66 69.254C125.54 69.584 125.365 69.8815 125.135 70.1465C124.91 70.4065 124.633 70.629 124.303 70.814C123.978 70.999 123.608 71.139 123.193 71.234C123.378 71.339 123.538 71.4915 123.673 71.6915L126.808 75.959Z" fill="#0D1D33"/>
<defs>
<clipPath id="clip0_1_650">
<rect width="50" height="48.75" fill="white" transform="translate(39.3867 1.58398)"/>
</clipPath>
</defs>
</svg>
