<svg width="78" height="81" viewBox="0 0 78 81" fill="none" xmlns="http://www.w3.org/2000/svg">
<g clip-path="url(#clip0_1_671)">
<path d="M68.8555 -4.04102H8.85547V55.959H68.8555V-4.04102Z" fill="white"/>
<path d="M70.1055 -2.79102H10.1055V57.209H70.1055V-2.79102Z" fill="white"/>
<path d="M70.1055 -2.79102H10.1055V57.209H70.1055V-2.79102Z" fill="white"/>
<mask id="mask0_1_671" style="mask-type:luminance" maskUnits="userSpaceOnUse" x="10" y="-3" width="51" height="31">
<path d="M10.1055 -2.79102H60.1055V27.409H10.1055V-2.79102Z" fill="white"/>
</mask>
<g mask="url(#mask0_1_671)">
<path d="M21.907 5.08503H31.3346V5.83555H22.7711V11.4829H30.8242V12.2335H22.7711V18.434H31.4326V19.185H21.907V5.08503ZM32.1789 5.08503H33.181L37.6195 11.2855L42.1565 5.08503L48.3273 -2.79102L38.1888 11.9376L43.4138 19.185H42.3721L37.6195 12.5887L32.8471 19.185H31.8258L37.0888 11.9376L32.1789 5.08503ZM43.7867 5.83555V5.08503H54.5305V5.83555H49.5805V19.1845H48.7169V5.83555H43.7867ZM10.1133 5.08503H11.1935L26.0888 27.4069L19.9336 19.185L11.0169 6.15169L10.9779 19.185H10.1133V5.08503ZM54.4425 18.2085C54.2669 18.2085 54.1341 18.0704 54.1341 17.8934C54.1341 17.7163 54.2669 17.5798 54.4425 17.5798C54.6211 17.5798 54.7518 17.7163 54.7518 17.8934C54.7518 18.0704 54.6211 18.2085 54.4425 18.2085ZM55.2919 17.3814H55.7544C55.7602 17.6324 55.944 17.8007 56.2122 17.8007C56.5133 17.8007 56.6831 17.6199 56.6831 17.2803V15.1309H57.1544V17.2824C57.1544 17.8934 56.8013 18.2454 56.2174 18.2454C55.6685 18.2454 55.2919 17.9043 55.2919 17.3814ZM57.7706 17.3538H58.2372C58.2763 17.6434 58.5581 17.8262 58.9643 17.8262C59.3424 17.8262 59.6195 17.6303 59.6195 17.3605C59.6195 17.1288 59.443 16.9892 59.0414 16.8944L58.6508 16.7996C58.1023 16.6715 57.8523 16.4053 57.8523 15.9585C57.8523 15.4173 58.2935 15.0574 58.9555 15.0574C59.5716 15.0574 60.0206 15.4173 60.0482 15.9293H59.5904C59.5461 15.6486 59.3023 15.4736 58.9487 15.4736C58.5768 15.4736 58.3289 15.6538 58.3289 15.9272C58.3289 16.1444 58.4888 16.2684 58.8841 16.3616L59.218 16.4434C59.8398 16.5892 60.0966 16.8423 60.0966 17.2991C60.0966 17.8809 59.6466 18.2454 58.9284 18.2454C58.2555 18.2454 57.8039 17.8986 57.7706 17.3538Z" fill="#6C8198"/>
</g>
</g>
<path d="M11.7607 65.2125V75.96H11.0332C10.9182 75.96 10.8207 75.94 10.7407 75.9C10.6657 75.86 10.5907 75.7925 10.5157 75.6975L4.29816 67.5975C4.30816 67.7225 4.31566 67.845 4.32066 67.965C4.32566 68.085 4.32816 68.1975 4.32816 68.3025V75.96H3.05316V65.2125H3.80316C3.86816 65.2125 3.92316 65.2175 3.96816 65.2275C4.01316 65.2325 4.05316 65.245 4.08816 65.265C4.12316 65.28 4.15816 65.305 4.19316 65.34C4.22816 65.37 4.26566 65.41 4.30566 65.46L10.5232 73.5525C10.5132 73.4225 10.5032 73.2975 10.4932 73.1775C10.4882 73.0525 10.4857 72.935 10.4857 72.825V65.2125H11.7607ZM24.1382 74.775L24.1307 75.96H17.5082V65.2125H24.1307V66.3975H18.9632V69.9675H23.1482V71.1075H18.9632V74.775H24.1382ZM37.363 75.96H35.923C35.813 75.96 35.7255 75.9325 35.6605 75.8775C35.6005 75.8175 35.5505 75.7525 35.5105 75.6825L32.6305 71.1675C32.5905 71.2875 32.5455 71.39 32.4955 71.475L29.6905 75.6825C29.6405 75.7525 29.5855 75.8175 29.5255 75.8775C29.4705 75.9325 29.393 75.96 29.293 75.96H27.943L31.6405 70.44L28.093 65.2125H29.5405C29.6455 65.2125 29.723 65.23 29.773 65.265C29.823 65.3 29.868 65.35 29.908 65.415L32.713 69.72C32.748 69.615 32.8005 69.5 32.8705 69.375L35.518 65.445C35.558 65.375 35.6055 65.32 35.6605 65.28C35.7155 65.235 35.7805 65.2125 35.8555 65.2125H37.243L33.6805 70.3725L37.363 75.96ZM49.1742 66.435H45.6942V75.96H44.2467V66.435H40.7592V65.2125H49.1742V66.435ZM52.1743 75.135C52.1743 75.005 52.1968 74.8825 52.2418 74.7675C52.2918 74.6525 52.3568 74.5525 52.4368 74.4675C52.5218 74.3825 52.6218 74.315 52.7368 74.265C52.8518 74.215 52.9743 74.19 53.1043 74.19C53.2343 74.19 53.3568 74.215 53.4718 74.265C53.5868 74.315 53.6868 74.3825 53.7718 74.4675C53.8568 74.5525 53.9243 74.6525 53.9743 74.7675C54.0243 74.8825 54.0493 75.005 54.0493 75.135C54.0493 75.27 54.0243 75.395 53.9743 75.51C53.9243 75.62 53.8568 75.7175 53.7718 75.8025C53.6868 75.8875 53.5868 75.9525 53.4718 75.9975C53.3568 76.0475 53.2343 76.0725 53.1043 76.0725C52.9743 76.0725 52.8518 76.0475 52.7368 75.9975C52.6218 75.9525 52.5218 75.8875 52.4368 75.8025C52.3568 75.7175 52.2918 75.62 52.2418 75.51C52.1968 75.395 52.1743 75.27 52.1743 75.135ZM62.9642 72.2475C62.9642 72.8475 62.8892 73.385 62.7392 73.86C62.5942 74.335 62.3767 74.7375 62.0867 75.0675C61.8017 75.3925 61.4492 75.6425 61.0292 75.8175C60.6092 75.9925 60.1267 76.08 59.5817 76.08C59.0867 76.08 58.5817 76.01 58.0667 75.87C58.0767 75.725 58.0892 75.5825 58.1042 75.4425C58.1192 75.2975 58.1317 75.155 58.1417 75.015C58.1517 74.93 58.1817 74.8625 58.2317 74.8125C58.2867 74.7575 58.3692 74.73 58.4792 74.73C58.5692 74.73 58.6867 74.7525 58.8317 74.7975C58.9817 74.8425 59.1817 74.865 59.4317 74.865C59.7617 74.865 60.0567 74.815 60.3167 74.715C60.5767 74.615 60.7942 74.46 60.9692 74.25C61.1442 74.04 61.2767 73.7725 61.3667 73.4475C61.4617 73.1175 61.5092 72.7275 61.5092 72.2775V65.2125H62.9642V72.2475ZM74.0995 66.8925C74.0545 66.9675 74.0045 67.025 73.9495 67.065C73.8995 67.1 73.837 67.1175 73.762 67.1175C73.677 67.1175 73.577 67.075 73.462 66.99C73.347 66.905 73.202 66.8125 73.027 66.7125C72.857 66.6075 72.6495 66.5125 72.4045 66.4275C72.1645 66.3425 71.872 66.3 71.527 66.3C71.202 66.3 70.9145 66.345 70.6645 66.435C70.4195 66.52 70.212 66.6375 70.042 66.7875C69.877 66.9375 69.752 67.115 69.667 67.32C69.582 67.52 69.5395 67.7375 69.5395 67.9725C69.5395 68.2725 69.612 68.5225 69.757 68.7225C69.907 68.9175 70.102 69.085 70.342 69.225C70.587 69.365 70.862 69.4875 71.167 69.5925C71.477 69.6925 71.792 69.7975 72.112 69.9075C72.437 70.0175 72.752 70.1425 73.057 70.2825C73.367 70.4175 73.642 70.59 73.882 70.8C74.127 71.01 74.322 71.2675 74.467 71.5725C74.617 71.8775 74.692 72.2525 74.692 72.6975C74.692 73.1675 74.612 73.61 74.452 74.025C74.292 74.435 74.057 74.7925 73.747 75.0975C73.442 75.4025 73.0645 75.6425 72.6145 75.8175C72.1695 75.9925 71.662 76.08 71.092 76.08C70.392 76.08 69.757 75.955 69.187 75.705C68.617 75.45 68.1295 75.1075 67.7245 74.6775L68.1445 73.9875C68.1845 73.9325 68.232 73.8875 68.287 73.8525C68.347 73.8125 68.412 73.7925 68.482 73.7925C68.547 73.7925 68.6195 73.82 68.6995 73.875C68.7845 73.925 68.8795 73.99 68.9845 74.07C69.0895 74.15 69.2095 74.2375 69.3445 74.3325C69.4795 74.4275 69.632 74.515 69.802 74.595C69.977 74.675 70.1745 74.7425 70.3945 74.7975C70.6145 74.8475 70.862 74.8725 71.137 74.8725C71.482 74.8725 71.7895 74.825 72.0595 74.73C72.3295 74.635 72.557 74.5025 72.742 74.3325C72.932 74.1575 73.077 73.95 73.177 73.71C73.277 73.47 73.327 73.2025 73.327 72.9075C73.327 72.5825 73.252 72.3175 73.102 72.1125C72.957 71.9025 72.7645 71.7275 72.5245 71.5875C72.2845 71.4475 72.0095 71.33 71.6995 71.235C71.3895 71.135 71.0745 71.035 70.7545 70.935C70.4345 70.83 70.1195 70.71 69.8095 70.575C69.4995 70.44 69.2245 70.265 68.9845 70.05C68.7445 69.835 68.5495 69.5675 68.3995 69.2475C68.2545 68.9225 68.182 68.5225 68.182 68.0475C68.182 67.6675 68.2545 67.3 68.3995 66.945C68.5495 66.59 68.7645 66.275 69.0445 66C69.3295 65.725 69.677 65.505 70.087 65.34C70.502 65.175 70.977 65.0925 71.512 65.0925C72.112 65.0925 72.657 65.1875 73.147 65.3775C73.642 65.5675 74.077 65.8425 74.452 66.2025L74.0995 66.8925Z" fill="#0D1D33"/>
<defs>
<clipPath id="clip0_1_671">
<rect width="50" height="50" fill="white" transform="translate(13.8555 0.958984)"/>
</clipPath>
</defs>
</svg>
