<svg width="56" height="81" viewBox="0 0 56 81" fill="none" xmlns="http://www.w3.org/2000/svg">
<g clip-path="url(#clip0_1_719)">
<mask id="mask0_1_719" style="mask-type:luminance" maskUnits="userSpaceOnUse" x="3" y="0" width="51" height="51">
<path d="M53.168 0.959961H3.16797V50.96H53.168V0.959961Z" fill="white"/>
</mask>
<g mask="url(#mask0_1_719)">
<path fill-rule="evenodd" clip-rule="evenodd" d="M26.1276 50.4546C26.7342 50.7762 27.3876 50.96 28.0875 50.96C28.7408 50.96 29.4408 50.8221 30.0474 50.5465L48.6662 39.9356C49.8795 39.2466 50.6262 37.9604 50.6262 36.5824V15.4064C50.6262 14.0284 49.8795 12.7422 48.6662 12.0532L30.0474 1.44228C28.8808 0.799189 27.2942 0.799189 26.1276 1.44228L7.50871 12.0532C6.29545 12.7422 5.54883 14.0284 5.54883 15.4064V36.5824C5.54883 37.9604 6.29545 39.2466 7.50871 39.9356L12.4084 42.6917C14.7883 43.84 15.6283 43.84 16.7015 43.84C20.2013 43.84 22.2079 41.7271 22.2079 38.0982V17.1979C22.2079 16.8764 21.9279 16.6467 21.6479 16.6467H19.268C18.9414 16.6467 18.708 16.9223 18.708 17.1979V38.0982C18.708 39.706 16.9815 41.3136 14.2283 39.9356L9.14195 37.0418C8.9553 36.9499 8.86197 36.7202 8.86197 36.5364V15.3605C8.86197 15.1768 8.9553 14.9471 9.14195 14.8552L27.7608 4.29023C27.9008 4.19836 28.1341 4.19836 28.3208 4.29023L46.9397 14.8552C47.1264 14.9471 47.2197 15.1308 47.2197 15.3605V36.5364C47.2197 36.7661 47.1264 36.9499 46.9397 37.0418L28.3208 47.6526C28.1808 47.7445 27.9475 47.7445 27.7608 47.6526L23.0012 44.8507C22.8612 44.7588 22.6745 44.7129 22.5345 44.8047C21.2279 45.5396 20.9946 45.6315 19.7347 46.045C19.4547 46.1368 18.988 46.3206 19.9213 46.8258L26.1276 50.4546ZM23.9811 29.6003C23.9811 32.7238 25.661 36.3986 33.8272 36.3986C39.7534 36.3986 43.1133 34.1018 43.1599 30.0596C43.1599 26.1092 40.4534 25.0527 34.7137 24.3178C28.9274 23.5828 28.3208 23.1693 28.3208 21.8372C28.3208 20.7348 28.8341 19.2649 33.1272 19.2649C36.9537 19.2649 38.4002 20.0918 38.9601 22.6182C39.0069 22.8479 39.2401 23.0315 39.4735 23.0315H41.9C42.04 23.0315 42.18 22.9397 42.2733 22.8479C42.3666 22.71 42.4133 22.5722 42.4133 22.4344C42.04 18.0246 39.1001 16.0036 33.1272 16.0036C27.8075 16.0036 24.6344 18.2084 24.6344 21.9291C24.6344 25.9254 27.8075 27.0279 32.8939 27.5332C39.0069 28.1304 39.4735 29.0031 39.4735 30.1974C39.4735 32.2644 37.7936 33.1372 33.8738 33.1372C28.9274 33.1372 27.8542 31.9429 27.4808 29.5084C27.4808 29.2328 27.2476 29.049 26.9676 29.049H24.541C24.2144 29.049 23.9811 29.3246 23.9811 29.6003Z" fill="#539E43"/>
<mask id="mask1_1_719" style="mask-type:alpha" maskUnits="userSpaceOnUse" x="5" y="0" width="46" height="51">
<path fill-rule="evenodd" clip-rule="evenodd" d="M26.1276 50.4546C26.7342 50.7762 27.3876 50.96 28.0875 50.96C28.7408 50.96 29.4408 50.8221 30.0474 50.5465L48.6662 39.9356C49.8795 39.2466 50.6262 37.9604 50.6262 36.5824V15.4064C50.6262 14.0284 49.8795 12.7422 48.6662 12.0532L30.0474 1.44228C28.8808 0.799189 27.2942 0.799189 26.1276 1.44228L7.50871 12.0532C6.29545 12.7422 5.54883 14.0284 5.54883 15.4064V36.5824C5.54883 37.9604 6.29545 39.2466 7.50871 39.9356L12.4084 42.6917C14.7883 43.84 15.6283 43.84 16.7015 43.84C20.2013 43.84 22.2079 41.7271 22.2079 38.0982V17.1979C22.2079 16.8764 21.9279 16.6467 21.6479 16.6467H19.268C18.9414 16.6467 18.708 16.9223 18.708 17.1979V38.0982C18.708 39.706 16.9815 41.3136 14.2283 39.9356L9.14195 37.0418C8.9553 36.9499 8.86197 36.7202 8.86197 36.5364V15.3605C8.86197 15.1768 8.9553 14.9471 9.14195 14.8552L27.7608 4.29023C27.9008 4.19836 28.1341 4.19836 28.3208 4.29023L46.9397 14.8552C47.1264 14.9471 47.2197 15.1308 47.2197 15.3605V36.5364C47.2197 36.7661 47.1264 36.9499 46.9397 37.0418L28.3208 47.6526C28.1808 47.7445 27.9475 47.7445 27.7608 47.6526L23.0012 44.8507C22.8612 44.7588 22.6745 44.7129 22.5345 44.8047C21.2279 45.5396 20.9946 45.6315 19.7347 46.045C19.4547 46.1368 18.988 46.3206 19.9213 46.8258L26.1276 50.4546ZM23.9811 29.6003C23.9811 32.7238 25.661 36.3986 33.8272 36.3986C39.7534 36.3986 43.1133 34.1018 43.1599 30.0596C43.1599 26.1092 40.4534 25.0527 34.7137 24.3178C28.9274 23.5828 28.3208 23.1693 28.3208 21.8372C28.3208 20.7348 28.8341 19.2649 33.1272 19.2649C36.9537 19.2649 38.4002 20.0918 38.9601 22.6182C39.0069 22.8479 39.2401 23.0315 39.4735 23.0315H41.9C42.04 23.0315 42.18 22.9397 42.2733 22.8479C42.3666 22.71 42.4133 22.5722 42.4133 22.4344C42.04 18.0246 39.1001 16.0036 33.1272 16.0036C27.8075 16.0036 24.6344 18.2084 24.6344 21.9291C24.6344 25.9254 27.8075 27.0279 32.8939 27.5332C39.0069 28.1304 39.4735 29.0031 39.4735 30.1974C39.4735 32.2644 37.7936 33.1372 33.8738 33.1372C28.9274 33.1372 27.8542 31.9429 27.4808 29.5084C27.4808 29.2328 27.2476 29.049 26.9676 29.049H24.541C24.2144 29.049 23.9811 29.3246 23.9811 29.6003Z" fill="white"/>
</mask>
<g mask="url(#mask1_1_719)">
<g style="mix-blend-mode:color">
<path d="M53.6306 -1.25879H2.54297V54.2075H53.6306V-1.25879Z" fill="#0D1D33"/>
</g>
</g>
</g>
</g>
<path d="M11.7148 65.2125V75.96H10.9873C10.8723 75.96 10.7748 75.94 10.6948 75.9C10.6198 75.86 10.5448 75.7925 10.4698 75.6975L4.25227 67.5975C4.26227 67.7225 4.26977 67.845 4.27477 67.965C4.27977 68.085 4.28227 68.1975 4.28227 68.3025V75.96H3.00727V65.2125H3.75727C3.82227 65.2125 3.87727 65.2175 3.92227 65.2275C3.96727 65.2325 4.00727 65.245 4.04227 65.265C4.07727 65.28 4.11227 65.305 4.14727 65.34C4.18227 65.37 4.21977 65.41 4.25977 65.46L10.4773 73.5525C10.4673 73.4225 10.4573 73.2975 10.4473 73.1775C10.4423 73.0525 10.4398 72.935 10.4398 72.825V65.2125H11.7148ZM27.3923 70.59C27.3923 71.395 27.2648 72.135 27.0098 72.81C26.7548 73.48 26.3948 74.0575 25.9298 74.5425C25.4648 75.0275 24.9048 75.405 24.2498 75.675C23.5998 75.94 22.8798 76.0725 22.0898 76.0725C21.2998 76.0725 20.5798 75.94 19.9298 75.675C19.2798 75.405 18.7223 75.0275 18.2573 74.5425C17.7923 74.0575 17.4323 73.48 17.1773 72.81C16.9223 72.135 16.7948 71.395 16.7948 70.59C16.7948 69.785 16.9223 69.0475 17.1773 68.3775C17.4323 67.7025 17.7923 67.1225 18.2573 66.6375C18.7223 66.1475 19.2798 65.7675 19.9298 65.4975C20.5798 65.2275 21.2998 65.0925 22.0898 65.0925C22.8798 65.0925 23.5998 65.2275 24.2498 65.4975C24.9048 65.7675 25.4648 66.1475 25.9298 66.6375C26.3948 67.1225 26.7548 67.7025 27.0098 68.3775C27.2648 69.0475 27.3923 69.785 27.3923 70.59ZM25.8998 70.59C25.8998 69.93 25.8098 69.3375 25.6298 68.8125C25.4498 68.2875 25.1948 67.845 24.8648 67.485C24.5348 67.12 24.1348 66.84 23.6648 66.645C23.1948 66.45 22.6698 66.3525 22.0898 66.3525C21.5148 66.3525 20.9923 66.45 20.5223 66.645C20.0523 66.84 19.6498 67.12 19.3148 67.485C18.9848 67.845 18.7298 68.2875 18.5498 68.8125C18.3698 69.3375 18.2798 69.93 18.2798 70.59C18.2798 71.25 18.3698 71.8425 18.5498 72.3675C18.7298 72.8875 18.9848 73.33 19.3148 73.695C19.6498 74.055 20.0523 74.3325 20.5223 74.5275C20.9923 74.7175 21.5148 74.8125 22.0898 74.8125C22.6698 74.8125 23.1948 74.7175 23.6648 74.5275C24.1348 74.3325 24.5348 74.055 24.8648 73.695C25.1948 73.33 25.4498 72.8875 25.6298 72.3675C25.8098 71.8425 25.8998 71.25 25.8998 70.59ZM41.7891 70.59C41.7891 71.395 41.6616 72.1275 41.4066 72.7875C41.1516 73.4475 40.7916 74.0125 40.3266 74.4825C39.8616 74.9525 39.3016 75.3175 38.6466 75.5775C37.9966 75.8325 37.2766 75.96 36.4866 75.96H32.4741V65.2125H36.4866C37.2766 65.2125 37.9966 65.3425 38.6466 65.6025C39.3016 65.8575 39.8616 66.2225 40.3266 66.6975C40.7916 67.1675 41.1516 67.7325 41.4066 68.3925C41.6616 69.0525 41.7891 69.785 41.7891 70.59ZM40.2966 70.59C40.2966 69.93 40.2066 69.34 40.0266 68.82C39.8466 68.3 39.5916 67.86 39.2616 67.5C38.9316 67.14 38.5316 66.865 38.0616 66.675C37.5916 66.485 37.0666 66.39 36.4866 66.39H33.9291V74.7825H36.4866C37.0666 74.7825 37.5916 74.6875 38.0616 74.4975C38.5316 74.3075 38.9316 74.035 39.2616 73.68C39.5916 73.32 39.8466 72.88 40.0266 72.36C40.2066 71.84 40.2966 71.25 40.2966 70.59ZM53.5152 74.775L53.5077 75.96H46.8852V65.2125H53.5077V66.3975H48.3402V69.9675H52.5252V71.1075H48.3402V74.775H53.5152Z" fill="#0D1D33"/>
<defs>
<clipPath id="clip0_1_719">
<rect width="50" height="50" fill="white" transform="translate(3.16797 0.959961)"/>
</clipPath>
</defs>
</svg>
