<svg width="121" height="81" viewBox="0 0 121 81" fill="none" xmlns="http://www.w3.org/2000/svg">
<g clip-path="url(#clip0_1_643)">
<path d="M43.9753 1.58398H76.2669C81.1628 1.58398 85.1211 5.54232 85.1211 10.4382V41.4798C85.1211 46.3756 81.1628 50.334 76.2669 50.334H43.9753C39.0794 50.334 35.1211 46.3756 35.1211 41.4798V10.4382C35.1211 5.54232 39.0794 1.58398 43.9753 1.58398Z" fill="#708096"/>
<path d="M46.3711 35.7721V14.3346C46.3711 14.1888 46.4336 14.1055 46.5794 14.1055C46.9336 14.1055 47.2669 14.1055 47.7461 14.0846C48.2461 14.0638 48.7669 14.0638 49.3294 14.043C49.8919 14.0221 50.4961 14.0221 51.1419 14.0013C51.7878 13.9805 52.4128 13.9805 53.0378 13.9805C54.7461 13.9805 56.1628 14.1888 57.3294 14.6263C58.3711 14.9805 59.3294 15.5638 60.1211 16.3346C60.7878 17.0013 61.3086 17.8138 61.6419 18.7096C61.9544 19.5846 62.1211 20.4805 62.1211 21.418C62.1211 23.2096 61.7044 24.6888 60.8711 25.8555C60.0378 27.0221 58.8711 27.8971 57.5169 28.3971C56.1003 28.918 54.5378 29.1055 52.8294 29.1055C52.3294 29.1055 51.9961 29.1055 51.7878 29.0846C51.5794 29.0638 51.2878 29.0638 50.8919 29.0638V35.7513C50.9128 35.8971 50.8086 36.0221 50.6628 36.043C50.6419 36.043 50.6211 36.043 50.5794 36.043H46.6211C46.4544 36.043 46.3711 35.9596 46.3711 35.7721ZM50.9128 18.1263V25.1263C51.2044 25.1471 51.4753 25.168 51.7253 25.168H52.8294C53.6419 25.168 54.4544 25.043 55.2253 24.793C55.8919 24.6055 56.4753 24.2096 56.9336 23.6888C57.3711 23.168 57.5794 22.4596 57.5794 21.543C57.6003 20.8971 57.4336 20.2513 57.1003 19.6888C56.7461 19.1471 56.2461 18.7305 55.6419 18.5013C54.8711 18.1888 54.0378 18.0638 53.1836 18.0846C52.6419 18.0846 52.1628 18.0846 51.7669 18.1055C51.3503 18.0846 51.0586 18.1055 50.9128 18.1263Z" fill="white"/>
<path d="M75.1211 23.8548C74.4961 23.5215 73.8295 23.2923 73.1211 23.1465C72.3503 22.9798 71.5795 22.8756 70.7878 22.8756C70.3711 22.8548 69.9336 22.9173 69.5378 23.0215C69.267 23.084 69.0378 23.2298 68.892 23.4382C68.7878 23.6048 68.7253 23.8131 68.7253 24.0006C68.7253 24.1881 68.8086 24.3756 68.9336 24.5423C69.1211 24.7715 69.3711 24.959 69.642 25.1048C70.1211 25.3548 70.6211 25.584 71.1211 25.7923C72.2461 26.1673 73.3295 26.6882 74.3295 27.3132C75.017 27.7507 75.5795 28.334 75.9753 29.0423C76.3086 29.709 76.4753 30.4382 76.4545 31.1882C76.4753 32.1673 76.1836 33.1465 75.642 33.959C75.0586 34.7923 74.2461 35.4382 73.3086 35.8132C72.2878 36.2507 71.0378 36.4798 69.5378 36.4798C68.5795 36.4798 67.642 36.3965 66.7045 36.209C65.9753 36.084 65.2461 35.8548 64.5795 35.5423C64.4336 35.459 64.3295 35.3132 64.3503 35.1465V31.5215C64.3503 31.459 64.3711 31.3757 64.4336 31.334C64.4961 31.2923 64.5586 31.3131 64.6211 31.3548C65.4336 31.834 66.2878 32.1673 67.2045 32.3757C67.9961 32.584 68.8295 32.6882 69.6628 32.6882C70.4545 32.6882 71.017 32.584 71.392 32.3965C71.7253 32.2506 71.9545 31.8965 71.9545 31.5215C71.9545 31.2298 71.7878 30.959 71.4545 30.6881C71.1211 30.4173 70.4336 30.1048 69.4128 29.709C68.3503 29.334 67.3711 28.834 66.4545 28.209C65.8086 27.7507 65.267 27.1465 64.8711 26.4382C64.5378 25.7715 64.3711 25.0423 64.392 24.3131C64.392 23.4173 64.642 22.5632 65.1003 21.7923C65.6211 20.959 66.392 20.2923 67.2878 19.8757C68.267 19.3757 69.4961 19.1465 70.9753 19.1465C71.8295 19.1465 72.7045 19.209 73.5586 19.334C74.1836 19.4173 74.7878 19.584 75.3503 19.8132C75.4336 19.834 75.517 19.9173 75.5586 20.0007C75.5795 20.084 75.6003 20.1673 75.6003 20.2507V23.6465C75.6003 23.7298 75.5586 23.8132 75.4961 23.8548C75.3086 23.8965 75.2045 23.8965 75.1211 23.8548Z" fill="white"/>
</g>
<path d="M6.18025 70.784C6.59525 70.784 6.96025 70.729 7.27525 70.619C7.59525 70.509 7.86275 70.3565 8.07775 70.1615C8.29775 69.9615 8.46275 69.724 8.57275 69.449C8.68275 69.174 8.73775 68.8715 8.73775 68.5415C8.73775 67.8565 8.52525 67.3215 8.10025 66.9365C7.68025 66.5515 7.04025 66.359 6.18025 66.359H4.45525V70.784H6.18025ZM6.18025 65.2115C6.86025 65.2115 7.45025 65.2915 7.95025 65.4515C8.45525 65.6065 8.87275 65.829 9.20275 66.119C9.53275 66.409 9.77775 66.759 9.93775 67.169C10.1028 67.579 10.1853 68.0365 10.1853 68.5415C10.1853 69.0415 10.0978 69.499 9.92275 69.914C9.74775 70.329 9.49025 70.6865 9.15025 70.9865C8.81525 71.2865 8.39775 71.5215 7.89775 71.6915C7.40275 71.8565 6.83025 71.939 6.18025 71.939H4.45525V75.959H3.00775V65.2115H6.18025ZM23.724 65.2115V75.959H22.269V71.069H16.4715V75.959H15.0165V65.2115H16.4715V70.004H22.269V65.2115H23.724ZM39.4016 70.589C39.4016 71.394 39.2741 72.134 39.0191 72.809C38.7641 73.479 38.4041 74.0565 37.9391 74.5415C37.4741 75.0265 36.9141 75.404 36.2591 75.674C35.6091 75.939 34.8891 76.0715 34.0991 76.0715C33.3091 76.0715 32.5891 75.939 31.9391 75.674C31.2891 75.404 30.7316 75.0265 30.2666 74.5415C29.8016 74.0565 29.4416 73.479 29.1866 72.809C28.9316 72.134 28.8041 71.394 28.8041 70.589C28.8041 69.784 28.9316 69.0465 29.1866 68.3765C29.4416 67.7015 29.8016 67.1215 30.2666 66.6365C30.7316 66.1465 31.2891 65.7665 31.9391 65.4965C32.5891 65.2265 33.3091 65.0915 34.0991 65.0915C34.8891 65.0915 35.6091 65.2265 36.2591 65.4965C36.9141 65.7665 37.4741 66.1465 37.9391 66.6365C38.4041 67.1215 38.7641 67.7015 39.0191 68.3765C39.2741 69.0465 39.4016 69.784 39.4016 70.589ZM37.9091 70.589C37.9091 69.929 37.8191 69.3365 37.6391 68.8115C37.4591 68.2865 37.2041 67.844 36.8741 67.484C36.5441 67.119 36.1441 66.839 35.6741 66.644C35.2041 66.449 34.6791 66.3515 34.0991 66.3515C33.5241 66.3515 33.0016 66.449 32.5316 66.644C32.0616 66.839 31.6591 67.119 31.3241 67.484C30.9941 67.844 30.7391 68.2865 30.5591 68.8115C30.3791 69.3365 30.2891 69.929 30.2891 70.589C30.2891 71.249 30.3791 71.8415 30.5591 72.3665C30.7391 72.8865 30.9941 73.329 31.3241 73.694C31.6591 74.054 32.0616 74.3315 32.5316 74.5265C33.0016 74.7165 33.5241 74.8115 34.0991 74.8115C34.6791 74.8115 35.2041 74.7165 35.6741 74.5265C36.1441 74.3315 36.5441 74.054 36.8741 73.694C37.2041 73.329 37.4591 72.8865 37.6391 72.3665C37.8191 71.8415 37.9091 71.249 37.9091 70.589ZM51.2674 66.434H47.7874V75.959H46.3399V66.434H42.8524V65.2115H51.2674V66.434ZM65.3088 70.589C65.3088 71.394 65.1813 72.134 64.9263 72.809C64.6713 73.479 64.3113 74.0565 63.8463 74.5415C63.3813 75.0265 62.8213 75.404 62.1663 75.674C61.5163 75.939 60.7963 76.0715 60.0063 76.0715C59.2163 76.0715 58.4963 75.939 57.8463 75.674C57.1963 75.404 56.6388 75.0265 56.1738 74.5415C55.7088 74.0565 55.3488 73.479 55.0938 72.809C54.8388 72.134 54.7113 71.394 54.7113 70.589C54.7113 69.784 54.8388 69.0465 55.0938 68.3765C55.3488 67.7015 55.7088 67.1215 56.1738 66.6365C56.6388 66.1465 57.1963 65.7665 57.8463 65.4965C58.4963 65.2265 59.2163 65.0915 60.0063 65.0915C60.7963 65.0915 61.5163 65.2265 62.1663 65.4965C62.8213 65.7665 63.3813 66.1465 63.8463 66.6365C64.3113 67.1215 64.6713 67.7015 64.9263 68.3765C65.1813 69.0465 65.3088 69.784 65.3088 70.589ZM63.8163 70.589C63.8163 69.929 63.7263 69.3365 63.5463 68.8115C63.3663 68.2865 63.1113 67.844 62.7813 67.484C62.4513 67.119 62.0513 66.839 61.5813 66.644C61.1113 66.449 60.5863 66.3515 60.0063 66.3515C59.4313 66.3515 58.9088 66.449 58.4388 66.644C57.9688 66.839 57.5663 67.119 57.2313 67.484C56.9013 67.844 56.6463 68.2865 56.4663 68.8115C56.2863 69.3365 56.1963 69.929 56.1963 70.589C56.1963 71.249 56.2863 71.8415 56.4663 72.3665C56.6463 72.8865 56.9013 73.329 57.2313 73.694C57.5663 74.054 57.9688 74.3315 58.4388 74.5265C58.9088 74.7165 59.4313 74.8115 60.0063 74.8115C60.5863 74.8115 61.1113 74.7165 61.5813 74.5265C62.0513 74.3315 62.4513 74.054 62.7813 73.694C63.1113 73.329 63.3663 72.8865 63.5463 72.3665C63.7263 71.8415 63.8163 71.249 63.8163 70.589ZM75.8881 66.8915C75.8431 66.9665 75.7931 67.024 75.7381 67.064C75.6881 67.099 75.6256 67.1165 75.5506 67.1165C75.4656 67.1165 75.3656 67.074 75.2506 66.989C75.1356 66.904 74.9906 66.8115 74.8156 66.7115C74.6456 66.6065 74.4381 66.5115 74.1931 66.4265C73.9531 66.3415 73.6606 66.299 73.3156 66.299C72.9906 66.299 72.7031 66.344 72.4531 66.434C72.2081 66.519 72.0006 66.6365 71.8306 66.7865C71.6656 66.9365 71.5406 67.114 71.4556 67.319C71.3706 67.519 71.3281 67.7365 71.3281 67.9715C71.3281 68.2715 71.4006 68.5215 71.5456 68.7215C71.6956 68.9165 71.8906 69.084 72.1306 69.224C72.3756 69.364 72.6506 69.4865 72.9556 69.5915C73.2656 69.6915 73.5806 69.7965 73.9006 69.9065C74.2256 70.0165 74.5406 70.1415 74.8456 70.2815C75.1556 70.4165 75.4306 70.589 75.6706 70.799C75.9156 71.009 76.1106 71.2665 76.2556 71.5715C76.4056 71.8765 76.4806 72.2515 76.4806 72.6965C76.4806 73.1665 76.4006 73.609 76.2406 74.024C76.0806 74.434 75.8456 74.7915 75.5356 75.0965C75.2306 75.4015 74.8531 75.6415 74.4031 75.8165C73.9581 75.9915 73.4506 76.079 72.8806 76.079C72.1806 76.079 71.5456 75.954 70.9756 75.704C70.4056 75.449 69.9181 75.1065 69.5131 74.6765L69.9331 73.9865C69.9731 73.9315 70.0206 73.8865 70.0756 73.8515C70.1356 73.8115 70.2006 73.7915 70.2706 73.7915C70.3356 73.7915 70.4081 73.819 70.4881 73.874C70.5731 73.924 70.6681 73.989 70.7731 74.069C70.8781 74.149 70.9981 74.2365 71.1331 74.3315C71.2681 74.4265 71.4206 74.514 71.5906 74.594C71.7656 74.674 71.9631 74.7415 72.1831 74.7965C72.4031 74.8465 72.6506 74.8715 72.9256 74.8715C73.2706 74.8715 73.5781 74.824 73.8481 74.729C74.1181 74.634 74.3456 74.5015 74.5306 74.3315C74.7206 74.1565 74.8656 73.949 74.9656 73.709C75.0656 73.469 75.1156 73.2015 75.1156 72.9065C75.1156 72.5815 75.0406 72.3165 74.8906 72.1115C74.7456 71.9015 74.5531 71.7265 74.3131 71.5865C74.0731 71.4465 73.7981 71.329 73.4881 71.234C73.1781 71.134 72.8631 71.034 72.5431 70.934C72.2231 70.829 71.9081 70.709 71.5981 70.574C71.2881 70.439 71.0131 70.264 70.7731 70.049C70.5331 69.834 70.3381 69.5665 70.1881 69.2465C70.0431 68.9215 69.9706 68.5215 69.9706 68.0465C69.9706 67.6665 70.0431 67.299 70.1881 66.944C70.3381 66.589 70.5531 66.274 70.8331 65.999C71.1181 65.724 71.4656 65.504 71.8756 65.339C72.2906 65.174 72.7656 65.0915 73.3006 65.0915C73.9006 65.0915 74.4456 65.1865 74.9356 65.3765C75.4306 65.5665 75.8656 65.8415 76.2406 66.2015L75.8881 66.8915ZM90.2426 65.2115V75.959H88.7876V71.069H82.9901V75.959H81.5351V65.2115H82.9901V70.004H88.7876V65.2115H90.2426ZM105.92 70.589C105.92 71.394 105.793 72.134 105.538 72.809C105.283 73.479 104.923 74.0565 104.458 74.5415C103.993 75.0265 103.433 75.404 102.778 75.674C102.128 75.939 101.408 76.0715 100.618 76.0715C99.8277 76.0715 99.1077 75.939 98.4577 75.674C97.8077 75.404 97.2502 75.0265 96.7852 74.5415C96.3202 74.0565 95.9602 73.479 95.7052 72.809C95.4502 72.134 95.3227 71.394 95.3227 70.589C95.3227 69.784 95.4502 69.0465 95.7052 68.3765C95.9602 67.7015 96.3202 67.1215 96.7852 66.6365C97.2502 66.1465 97.8077 65.7665 98.4577 65.4965C99.1077 65.2265 99.8277 65.0915 100.618 65.0915C101.408 65.0915 102.128 65.2265 102.778 65.4965C103.433 65.7665 103.993 66.1465 104.458 66.6365C104.923 67.1215 105.283 67.7015 105.538 68.3765C105.793 69.0465 105.92 69.784 105.92 70.589ZM104.428 70.589C104.428 69.929 104.338 69.3365 104.158 68.8115C103.978 68.2865 103.723 67.844 103.393 67.484C103.063 67.119 102.663 66.839 102.193 66.644C101.723 66.449 101.198 66.3515 100.618 66.3515C100.043 66.3515 99.5202 66.449 99.0502 66.644C98.5802 66.839 98.1777 67.119 97.8427 67.484C97.5127 67.844 97.2577 68.2865 97.0777 68.8115C96.8977 69.3365 96.8077 69.929 96.8077 70.589C96.8077 71.249 96.8977 71.8415 97.0777 72.3665C97.2577 72.8865 97.5127 73.329 97.8427 73.694C98.1777 74.054 98.5802 74.3315 99.0502 74.5265C99.5202 74.7165 100.043 74.8115 100.618 74.8115C101.198 74.8115 101.723 74.7165 102.193 74.5265C102.663 74.3315 103.063 74.054 103.393 73.694C103.723 73.329 103.978 72.8865 104.158 72.3665C104.338 71.8415 104.428 71.249 104.428 70.589ZM114.174 70.784C114.589 70.784 114.954 70.729 115.269 70.619C115.589 70.509 115.857 70.3565 116.072 70.1615C116.292 69.9615 116.457 69.724 116.567 69.449C116.677 69.174 116.732 68.8715 116.732 68.5415C116.732 67.8565 116.519 67.3215 116.094 66.9365C115.674 66.5515 115.034 66.359 114.174 66.359H112.449V70.784H114.174ZM114.174 65.2115C114.854 65.2115 115.444 65.2915 115.944 65.4515C116.449 65.6065 116.867 65.829 117.197 66.119C117.527 66.409 117.772 66.759 117.932 67.169C118.097 67.579 118.179 68.0365 118.179 68.5415C118.179 69.0415 118.092 69.499 117.917 69.914C117.742 70.329 117.484 70.6865 117.144 70.9865C116.809 71.2865 116.392 71.5215 115.892 71.6915C115.397 71.8565 114.824 71.939 114.174 71.939H112.449V75.959H111.002V65.2115H114.174Z" fill="#0D1D33"/>
<defs>
<clipPath id="clip0_1_643">
<rect width="50" height="48.75" fill="white" transform="translate(35.1211 1.58398)"/>
</clipPath>
</defs>
</svg>
