<svg width="81" height="81" viewBox="0 0 81 81" fill="none" xmlns="http://www.w3.org/2000/svg">
<g clip-path="url(#clip0_1_733)">
<mask id="mask0_1_733" style="mask-type:luminance" maskUnits="userSpaceOnUse" x="15" y="0" width="51" height="51">
<path d="M65.8867 0.959961H15.8867V50.6996H65.8867V0.959961Z" fill="white"/>
</mask>
<g mask="url(#mask0_1_733)">
<path d="M40.7065 0.959961C28.0134 0.959962 28.806 6.46446 28.806 6.46446L28.8201 12.167H40.9329V13.8792H24.009C24.009 13.8792 15.8867 12.9581 15.8867 25.7656C15.8867 38.573 22.9761 38.1188 22.9761 38.1188H27.207V32.1757C27.207 32.1757 26.9789 25.0864 34.1831 25.0864C41.3874 25.0864 46.1968 25.0864 46.1968 25.0864C46.1968 25.0864 52.9466 25.1955 52.9466 18.563C52.9466 11.9306 52.9466 7.59649 52.9466 7.59649C52.9466 7.59649 53.9714 0.959961 40.7065 0.959961ZM34.0275 4.79471C35.2326 4.79471 36.2066 5.76875 36.2066 6.97387C36.2066 8.17903 35.2326 9.15303 34.0275 9.15303C32.8224 9.15303 31.8484 8.17903 31.8484 6.97387C31.8484 5.76875 32.8224 4.79471 34.0275 4.79471Z" fill="#79899F"/>
<path d="M41.067 50.701C53.7601 50.701 52.9674 45.1965 52.9674 45.1965L52.9533 39.4938H40.8406V37.7817H57.7645C57.7645 37.7817 65.8867 38.7028 65.8867 25.8953C65.8867 13.0879 58.7975 13.542 58.7975 13.542H54.5665V19.4852C54.5665 19.4852 54.7945 26.5745 47.5903 26.5745C40.3862 26.5745 35.5767 26.5745 35.5767 26.5745C35.5767 26.5745 28.8269 26.4655 28.8269 33.0979C28.8269 39.7303 28.8269 44.0645 28.8269 44.0645C28.8269 44.0645 27.8022 50.701 41.067 50.701ZM47.746 46.8662C46.5409 46.8662 45.5668 45.8922 45.5668 44.687C45.5668 43.4819 46.5409 42.5079 47.746 42.5079C48.9511 42.5079 49.9252 43.4819 49.9252 44.687C49.9252 45.8922 48.9511 46.8662 47.746 46.8662Z" fill="#A4B4CA"/>
</g>
</g>
<path d="M7.5118 70.785C7.9268 70.785 8.2918 70.73 8.6068 70.62C8.9268 70.51 9.1943 70.3575 9.4093 70.1625C9.6293 69.9625 9.7943 69.725 9.9043 69.45C10.0143 69.175 10.0693 68.8725 10.0693 68.5425C10.0693 67.8575 9.8568 67.3225 9.4318 66.9375C9.0118 66.5525 8.3718 66.36 7.5118 66.36H5.7868V70.785H7.5118ZM7.5118 65.2125C8.1918 65.2125 8.7818 65.2925 9.2818 65.4525C9.7868 65.6075 10.2043 65.83 10.5343 66.12C10.8643 66.41 11.1093 66.76 11.2693 67.17C11.4343 67.58 11.5168 68.0375 11.5168 68.5425C11.5168 69.0425 11.4293 69.5 11.2543 69.915C11.0793 70.33 10.8218 70.6875 10.4818 70.9875C10.1468 71.2875 9.7293 71.5225 9.2293 71.6925C8.7343 71.8575 8.1618 71.94 7.5118 71.94H5.7868V75.96H4.3393V65.2125H7.5118ZM20.1634 71.6775V75.96H18.7084V71.6775L14.7709 65.2125H16.0459C16.1759 65.2125 16.2784 65.245 16.3534 65.31C16.4284 65.37 16.4934 65.45 16.5484 65.55L19.0084 69.7275C19.0984 69.9025 19.1809 70.0675 19.2559 70.2225C19.3309 70.3725 19.3959 70.525 19.4509 70.68C19.5059 70.525 19.5684 70.3725 19.6384 70.2225C19.7084 70.0675 19.7859 69.9025 19.8709 69.7275L22.3234 65.55C22.3684 65.465 22.4309 65.3875 22.5109 65.3175C22.5909 65.2475 22.6934 65.2125 22.8184 65.2125H24.1009L20.1634 71.6775ZM35.7562 66.435H32.2762V75.96H30.8287V66.435H27.3412V65.2125H35.7562V66.435ZM49.0585 65.2125V75.96H47.6035V71.07H41.806V75.96H40.351V65.2125H41.806V70.005H47.6035V65.2125H49.0585ZM64.7361 70.59C64.7361 71.395 64.6086 72.135 64.3536 72.81C64.0986 73.48 63.7386 74.0575 63.2736 74.5425C62.8086 75.0275 62.2486 75.405 61.5936 75.675C60.9436 75.94 60.2236 76.0725 59.4336 76.0725C58.6436 76.0725 57.9236 75.94 57.2736 75.675C56.6236 75.405 56.0661 75.0275 55.6011 74.5425C55.1361 74.0575 54.7761 73.48 54.5211 72.81C54.2661 72.135 54.1386 71.395 54.1386 70.59C54.1386 69.785 54.2661 69.0475 54.5211 68.3775C54.7761 67.7025 55.1361 67.1225 55.6011 66.6375C56.0661 66.1475 56.6236 65.7675 57.2736 65.4975C57.9236 65.2275 58.6436 65.0925 59.4336 65.0925C60.2236 65.0925 60.9436 65.2275 61.5936 65.4975C62.2486 65.7675 62.8086 66.1475 63.2736 66.6375C63.7386 67.1225 64.0986 67.7025 64.3536 68.3775C64.6086 69.0475 64.7361 69.785 64.7361 70.59ZM63.2436 70.59C63.2436 69.93 63.1536 69.3375 62.9736 68.8125C62.7936 68.2875 62.5386 67.845 62.2086 67.485C61.8786 67.12 61.4786 66.84 61.0086 66.645C60.5386 66.45 60.0136 66.3525 59.4336 66.3525C58.8586 66.3525 58.3361 66.45 57.8661 66.645C57.3961 66.84 56.9936 67.12 56.6586 67.485C56.3286 67.845 56.0736 68.2875 55.8936 68.8125C55.7136 69.3375 55.6236 69.93 55.6236 70.59C55.6236 71.25 55.7136 71.8425 55.8936 72.3675C56.0736 72.8875 56.3286 73.33 56.6586 73.695C56.9936 74.055 57.3961 74.3325 57.8661 74.5275C58.3361 74.7175 58.8586 74.8125 59.4336 74.8125C60.0136 74.8125 60.5386 74.7175 61.0086 74.5275C61.4786 74.3325 61.8786 74.055 62.2086 73.695C62.5386 73.33 62.7936 72.8875 62.9736 72.3675C63.1536 71.8425 63.2436 71.25 63.2436 70.59ZM78.5253 65.2125V75.96H77.7978C77.6828 75.96 77.5853 75.94 77.5053 75.9C77.4303 75.86 77.3553 75.7925 77.2803 75.6975L71.0628 67.5975C71.0728 67.7225 71.0803 67.845 71.0853 67.965C71.0903 68.085 71.0928 68.1975 71.0928 68.3025V75.96H69.8178V65.2125H70.5678C70.6328 65.2125 70.6878 65.2175 70.7328 65.2275C70.7778 65.2325 70.8178 65.245 70.8528 65.265C70.8878 65.28 70.9228 65.305 70.9578 65.34C70.9928 65.37 71.0303 65.41 71.0703 65.46L77.2878 73.5525C77.2778 73.4225 77.2678 73.2975 77.2578 73.1775C77.2528 73.0525 77.2503 72.935 77.2503 72.825V65.2125H78.5253Z" fill="#0D1D33"/>
<defs>
<clipPath id="clip0_1_733">
<rect width="50" height="50" fill="white" transform="translate(15.8867 0.959961)"/>
</clipPath>
</defs>
</svg>
