<svg width="56" height="81" viewBox="0 0 56 81" fill="none" xmlns="http://www.w3.org/2000/svg">
<g clip-path="url(#clip0_1_743)">
<path fill-rule="evenodd" clip-rule="evenodd" d="M4.69531 41.222H22.1116C22.1116 41.222 18.7826 26.0324 29.8055 19.8816C32.2085 18.7132 39.8585 14.3481 52.3805 23.6074C52.7773 23.2767 53.1521 23.0121 53.1521 23.0121C53.1521 23.0121 41.6883 11.5703 28.9237 12.849C22.5084 13.4222 14.616 19.2643 9.98634 26.9804C5.35669 34.6964 4.69531 41.222 4.69531 41.222Z" fill="#708096"/>
<path fill-rule="evenodd" clip-rule="evenodd" d="M4.69531 41.222H22.1116C22.1116 41.222 18.7826 26.0324 29.8055 19.8816C32.2085 18.7132 39.8585 14.3481 52.3805 23.6074C52.7773 23.2767 53.1521 23.0121 53.1521 23.0121C53.1521 23.0121 41.6883 11.5703 28.9237 12.849C22.5084 13.4222 14.616 19.2643 9.98634 26.9804C5.35669 34.6964 4.69531 41.222 4.69531 41.222Z" fill="#708096"/>
<path fill-rule="evenodd" clip-rule="evenodd" d="M4.69531 41.2223H22.1116C22.1116 41.2223 18.7826 26.0328 29.8055 19.882C32.2085 18.7135 39.8585 14.3484 52.3805 23.6077C52.7773 23.277 53.1521 23.0124 53.1521 23.0124C53.1521 23.0124 41.6883 11.5707 28.9237 12.8493C22.4863 13.4225 14.5939 19.2647 9.96426 26.9807C5.33464 34.6967 4.69531 41.2223 4.69531 41.2223ZM40.9828 14.0839L41.071 12.6068C40.8726 12.4966 40.3214 12.232 38.9325 11.8352L38.8443 13.2902C39.5719 13.5327 40.2773 13.7973 40.9828 14.0839Z" fill="#708096"/>
<path fill-rule="evenodd" clip-rule="evenodd" d="M38.8887 18.7575L38.8005 20.1464C39.528 20.1685 40.2555 20.2567 40.983 20.411L41.0712 19.0441C40.3217 18.8898 39.5942 18.8016 38.8887 18.7575ZM30.7317 11.8792H30.9522L30.5112 10.5344C29.8278 10.5344 29.1223 10.5785 28.3948 10.6667L28.8137 11.9674C29.453 11.9013 30.0924 11.8792 30.7317 11.8792ZM31.7899 19.9921L32.297 21.5133C32.9363 21.2046 33.5756 20.9401 34.215 20.7417L33.7299 19.2866C32.9804 19.5071 32.3411 19.7496 31.7899 19.9921ZM21.7811 14.194L20.789 12.6729C20.2379 12.9595 19.6647 13.2681 19.0695 13.6208L20.0836 15.1641C20.6568 14.8113 21.2079 14.4806 21.7811 14.194ZM26.3005 24.1147L27.3587 25.702C27.7335 25.1508 28.1744 24.6438 28.6594 24.1367L27.6673 22.6376C27.1603 23.1005 26.6973 23.6076 26.3005 24.1147ZM23.1038 31.2134L24.8896 32.6244C24.9777 31.7646 25.1321 30.9048 25.3525 30.045L23.7652 28.7884C23.4786 29.6041 23.2802 30.4198 23.1038 31.2134ZM13.4478 20.7417L11.8825 19.3748C11.3093 19.926 10.7581 20.4771 10.2511 21.0283L11.9486 22.4833C12.4116 21.888 12.9187 21.2928 13.4478 20.7417ZM6.78991 30.5961L4.25464 29.6702C3.83576 30.6182 3.3728 31.7205 3.15234 32.3157L5.68762 33.2417C5.97421 32.4921 6.43717 31.4119 6.78991 30.5961ZM22.7731 36.8131C22.8172 37.9815 22.9275 38.9295 23.0377 39.5909L25.6832 40.5388C25.4848 39.6791 25.2864 38.7091 25.1541 37.6729L22.7731 36.8131Z" fill="#708096"/>
</g>
<path d="M6.40078 70.4175C6.82078 70.4175 7.19078 70.3675 7.51078 70.2675C7.83578 70.1625 8.10578 70.0175 8.32078 69.8325C8.54078 69.6425 8.70578 69.4175 8.81578 69.1575C8.92578 68.8975 8.98078 68.61 8.98078 68.295C8.98078 67.655 8.77078 67.1725 8.35078 66.8475C7.93078 66.5225 7.30078 66.36 6.46078 66.36H4.87078V70.4175H6.40078ZM11.3658 75.96H10.0758C9.81078 75.96 9.61578 75.8575 9.49078 75.6525L6.70078 71.8125C6.61578 71.6925 6.52328 71.6075 6.42328 71.5575C6.32828 71.5025 6.17828 71.475 5.97328 71.475H4.87078V75.96H3.42328V65.2125H6.46078C7.14078 65.2125 7.72828 65.2825 8.22328 65.4225C8.71828 65.5575 9.12578 65.755 9.44578 66.015C9.77078 66.275 10.0108 66.59 10.1658 66.96C10.3208 67.325 10.3983 67.735 10.3983 68.19C10.3983 68.57 10.3383 68.925 10.2183 69.255C10.0983 69.585 9.92328 69.8825 9.69328 70.1475C9.46828 70.4075 9.19078 70.63 8.86078 70.815C8.53578 71 8.16578 71.14 7.75078 71.235C7.93578 71.34 8.09578 71.4925 8.23078 71.6925L11.3658 75.96ZM21.5351 71.97L19.8476 67.5975C19.7976 67.4675 19.7451 67.3175 19.6901 67.1475C19.6351 66.9725 19.5826 66.7875 19.5326 66.5925C19.4276 66.9975 19.3201 67.335 19.2101 67.605L17.5226 71.97H21.5351ZM24.5651 75.96H23.4401C23.3101 75.96 23.2051 75.9275 23.1251 75.8625C23.0451 75.7975 22.9851 75.715 22.9451 75.615L21.9401 73.02H17.1176L16.1126 75.615C16.0826 75.705 16.0251 75.785 15.9401 75.855C15.8551 75.925 15.7501 75.96 15.6251 75.96H14.5001L18.7976 65.2125H20.2676L24.5651 75.96ZM30.4339 75.96H28.9789V65.2125H30.4339V75.96ZM42.2805 74.7375V75.96H36.183V65.2125H37.6305V74.7375H42.2805ZM52.3856 66.8925C52.3406 66.9675 52.2906 67.025 52.2356 67.065C52.1856 67.1 52.1231 67.1175 52.0481 67.1175C51.9631 67.1175 51.8631 67.075 51.7481 66.99C51.6331 66.905 51.4881 66.8125 51.3131 66.7125C51.1431 66.6075 50.9356 66.5125 50.6906 66.4275C50.4506 66.3425 50.1581 66.3 49.8131 66.3C49.4881 66.3 49.2006 66.345 48.9506 66.435C48.7056 66.52 48.4981 66.6375 48.3281 66.7875C48.1631 66.9375 48.0381 67.115 47.9531 67.32C47.8681 67.52 47.8256 67.7375 47.8256 67.9725C47.8256 68.2725 47.8981 68.5225 48.0431 68.7225C48.1931 68.9175 48.3881 69.085 48.6281 69.225C48.8731 69.365 49.1481 69.4875 49.4531 69.5925C49.7631 69.6925 50.0781 69.7975 50.3981 69.9075C50.7231 70.0175 51.0381 70.1425 51.3431 70.2825C51.6531 70.4175 51.9281 70.59 52.1681 70.8C52.4131 71.01 52.6081 71.2675 52.7531 71.5725C52.9031 71.8775 52.9781 72.2525 52.9781 72.6975C52.9781 73.1675 52.8981 73.61 52.7381 74.025C52.5781 74.435 52.3431 74.7925 52.0331 75.0975C51.7281 75.4025 51.3506 75.6425 50.9006 75.8175C50.4556 75.9925 49.9481 76.08 49.3781 76.08C48.6781 76.08 48.0431 75.955 47.4731 75.705C46.9031 75.45 46.4156 75.1075 46.0106 74.6775L46.4306 73.9875C46.4706 73.9325 46.5181 73.8875 46.5731 73.8525C46.6331 73.8125 46.6981 73.7925 46.7681 73.7925C46.8331 73.7925 46.9056 73.82 46.9856 73.875C47.0706 73.925 47.1656 73.99 47.2706 74.07C47.3756 74.15 47.4956 74.2375 47.6306 74.3325C47.7656 74.4275 47.9181 74.515 48.0881 74.595C48.2631 74.675 48.4606 74.7425 48.6806 74.7975C48.9006 74.8475 49.1481 74.8725 49.4231 74.8725C49.7681 74.8725 50.0756 74.825 50.3456 74.73C50.6156 74.635 50.8431 74.5025 51.0281 74.3325C51.2181 74.1575 51.3631 73.95 51.4631 73.71C51.5631 73.47 51.6131 73.2025 51.6131 72.9075C51.6131 72.5825 51.5381 72.3175 51.3881 72.1125C51.2431 71.9025 51.0506 71.7275 50.8106 71.5875C50.5706 71.4475 50.2956 71.33 49.9856 71.235C49.6756 71.135 49.3606 71.035 49.0406 70.935C48.7206 70.83 48.4056 70.71 48.0956 70.575C47.7856 70.44 47.5106 70.265 47.2706 70.05C47.0306 69.835 46.8356 69.5675 46.6856 69.2475C46.5406 68.9225 46.4681 68.5225 46.4681 68.0475C46.4681 67.6675 46.5406 67.3 46.6856 66.945C46.8356 66.59 47.0506 66.275 47.3306 66C47.6156 65.725 47.9631 65.505 48.3731 65.34C48.7881 65.175 49.2631 65.0925 49.7981 65.0925C50.3981 65.0925 50.9431 65.1875 51.4331 65.3775C51.9281 65.5675 52.3631 65.8425 52.7381 66.2025L52.3856 66.8925Z" fill="#0D1D33"/>
<defs>
<clipPath id="clip0_1_743">
<rect width="50" height="30.8511" fill="white" transform="translate(3.15234 10.5344)"/>
</clipPath>
</defs>
</svg>
