<svg width="63" height="81" viewBox="0 0 63 81" fill="none" xmlns="http://www.w3.org/2000/svg">
<path fill-rule="evenodd" clip-rule="evenodd" d="M45.5847 17.8123C46.1234 17.9678 46.6467 18.1322 47.1516 18.306C52.4087 20.1158 55.806 22.9506 55.806 25.8819C55.806 28.9388 52.1754 31.9276 46.5953 33.7765C46.3004 33.8743 45.9981 33.9682 45.6901 34.0593C45.8 34.5012 45.8979 34.9353 45.982 35.3603C47.0836 40.9247 46.2351 45.4982 43.6243 47.0096C41.0966 48.473 37.0109 47.0355 32.8741 43.4757C32.4373 43.0997 31.9981 42.6988 31.5582 42.2752C31.2188 42.6032 30.8801 42.9162 30.5425 43.2113C26.2717 46.9445 21.8858 48.4935 19.2724 46.9865C16.7423 45.5272 15.9473 41.2697 16.9653 35.9079C17.0727 35.3423 17.2006 34.7623 17.3476 34.1704C16.8946 34.0405 16.4551 33.9036 16.0315 33.7588C10.6639 31.9242 7.13086 28.8985 7.13086 25.8819C7.13086 22.9612 10.422 20.1454 15.5753 18.3487C16.1513 18.1479 16.7533 17.9592 17.3769 17.7822C17.2406 17.235 17.1201 16.6968 17.017 16.1697C15.9492 10.7132 16.7006 6.35277 19.2374 4.88421C21.883 3.35265 26.2889 4.99735 30.6844 8.90019C30.9526 9.13837 31.2216 9.38737 31.4909 9.64504C31.8952 9.25559 32.2997 8.88398 32.703 8.53301C36.8971 4.88299 41.0499 3.3562 43.5892 4.82052C46.2373 6.34765 47.0128 10.986 45.8267 16.7435C45.7545 17.0942 45.6732 17.4509 45.5847 17.8123ZM45.1237 32.0586C45.402 31.976 45.6751 31.8908 45.9413 31.8027C50.7593 30.2062 53.7266 27.7636 53.7266 25.8819C53.7266 24.1154 50.979 21.8228 46.4748 20.2722C46.009 20.1118 45.5258 19.9599 45.0278 19.8157C44.4291 21.7533 43.6298 23.8006 42.6589 25.8921C43.6763 28.0346 44.5078 30.1084 45.1237 32.0586ZM43.9422 35.7641C44.4292 38.2246 44.4988 40.4493 44.1762 42.1883C43.8863 43.751 43.3033 44.7928 42.5824 45.2101C41.0484 46.098 37.768 44.9438 34.2302 41.8994C33.8246 41.5504 33.4162 41.1778 33.0063 40.7835C34.3778 39.2834 35.7486 37.5396 37.0864 35.6029C39.4395 35.3941 41.6626 35.0527 43.6787 34.5867C43.778 34.9872 43.8662 35.3801 43.9422 35.7641ZM20.3114 45.1851C21.0329 45.6011 22.2266 45.586 23.7253 45.0566C25.3931 44.4676 27.2856 43.2963 29.1742 41.6456C29.4817 41.3767 29.7911 41.0912 30.1016 40.7915C28.6803 39.2662 27.27 37.5243 25.9231 35.6293C23.5644 35.438 21.3576 35.1207 19.3637 34.6799C19.2268 35.2312 19.1081 35.7707 19.0084 36.2957C18.1378 40.8812 18.776 44.2995 20.3114 45.1851ZM16.704 31.7912C14.3306 30.98 12.3705 29.9257 11.0269 28.7751C9.81968 27.7413 9.21016 26.7148 9.21016 25.8819C9.21016 24.1095 11.8526 21.8488 16.2598 20.3122C16.7945 20.1257 17.3543 19.9501 17.9353 19.785C18.5443 21.7663 19.3434 23.8378 20.3076 25.9325C19.3309 28.0584 18.5205 30.1629 17.9055 32.1674C17.4913 32.0484 17.0901 31.9231 16.704 31.7912ZM20.2792 6.68382C18.7504 7.56878 18.1428 11.0954 19.0576 15.7704C19.1534 16.2599 19.2656 16.7604 19.3922 17.27C21.407 16.8135 23.5983 16.4727 25.8876 16.2605C27.2224 14.3766 28.6198 12.6478 30.0341 11.1292C29.7898 10.896 29.5463 10.6705 29.3037 10.4551C25.5085 7.08523 21.9076 5.74108 20.2792 6.68382ZM40.0539 20.9549C39.5723 20.123 39.0778 19.3107 38.5737 18.5207C40.1267 18.717 41.6147 18.9776 43.012 19.2965C42.5926 20.641 42.0697 22.0468 41.4542 23.4879C41.0126 22.6496 40.5456 21.8044 40.0539 20.9549ZM34.356 16.0732C33.4113 14.8145 32.4508 13.6543 31.4917 12.6153C30.5176 13.6663 29.5487 14.8249 28.6031 16.0719C29.5492 16.0277 30.5059 16.0049 31.4684 16.0049C32.4402 16.0049 33.404 16.0282 34.356 16.0732ZM22.8746 20.9693C22.3934 21.8035 21.9351 22.6441 21.5006 23.4863C20.895 22.0502 20.377 20.6381 19.9538 19.2745C21.3426 18.9637 22.8236 18.7096 24.3667 18.517C23.8556 19.3143 23.357 20.1327 22.8746 20.9693ZM19.9251 32.674C21.3136 32.9762 22.8168 33.2173 24.4112 33.3952C23.8868 32.5815 23.376 31.7472 22.8829 30.8954C22.3988 30.0593 21.9386 29.2184 21.5029 28.3768C20.8845 29.8438 20.3551 31.2862 19.9251 32.674ZM31.5492 39.2952C30.5637 38.2318 29.5806 37.0556 28.6206 35.7904C29.5526 35.8269 30.5027 35.8457 31.4684 35.8457C32.4606 35.8457 33.4413 35.8233 34.4067 35.7804C33.4588 37.0683 32.5018 38.2464 31.5492 39.2952ZM43.1085 32.584C42.6731 31.2197 42.1246 29.7849 41.474 28.3021C41.0289 29.1601 40.5581 30.0213 40.0622 30.8811C39.572 31.731 39.0733 32.5572 38.568 33.3579C40.1734 33.1652 41.6972 32.906 43.1085 32.584ZM38.261 29.8423C37.5001 31.1616 36.719 32.421 35.9259 33.6098C34.4815 33.7131 32.9893 33.7662 31.4684 33.7662C29.9537 33.7662 28.4803 33.7192 27.0615 33.6271C26.2365 32.4227 25.4383 31.1596 24.6823 29.8537C23.9283 28.5512 23.2344 27.2379 22.6056 25.9318C23.2342 24.6228 23.9264 23.3079 24.6761 22.0079C25.4278 20.7044 26.2187 19.4476 27.0362 18.2507C28.4837 18.1413 29.9681 18.0843 31.4684 18.0843C32.9753 18.0843 34.4617 18.1418 35.9089 18.2521C36.7138 19.4402 37.4995 20.6932 38.2542 21.9968C39.0174 23.3152 39.7185 24.6213 40.3526 25.9023C39.7204 27.2053 39.0209 28.5246 38.261 29.8423ZM43.7903 16.3238C44.8144 11.3528 44.1805 7.56193 42.5505 6.62196C41.0203 5.73952 37.6616 6.97424 34.0681 10.1015C33.6962 10.4254 33.3226 10.7685 32.9486 11.1282C34.3398 12.6274 35.7258 14.3588 37.0633 16.2635C39.3592 16.4788 41.552 16.8256 43.5715 17.2915C43.6514 16.9641 43.7249 16.641 43.7903 16.3238Z" fill="#708096"/>
<path d="M31.4696 21.535C33.8701 21.535 35.8161 23.481 35.8161 25.8816C35.8161 28.282 33.8701 30.228 31.4696 30.228C29.0692 30.228 27.123 28.282 27.123 25.8816C27.123 23.481 29.0692 21.535 31.4696 21.535Z" fill="#708096"/>
<path d="M7.14102 70.4175C7.56102 70.4175 7.93102 70.3675 8.25102 70.2675C8.57602 70.1625 8.84602 70.0175 9.06102 69.8325C9.28102 69.6425 9.44602 69.4175 9.55602 69.1575C9.66602 68.8975 9.72102 68.61 9.72102 68.295C9.72102 67.655 9.51102 67.1725 9.09102 66.8475C8.67102 66.5225 8.04102 66.36 7.20102 66.36H5.61102V70.4175H7.14102ZM12.106 75.96H10.816C10.551 75.96 10.356 75.8575 10.231 75.6525L7.44102 71.8125C7.35602 71.6925 7.26352 71.6075 7.16352 71.5575C7.06852 71.5025 6.91852 71.475 6.71352 71.475H5.61102V75.96H4.16352V65.2125H7.20102C7.88102 65.2125 8.46852 65.2825 8.96352 65.4225C9.45852 65.5575 9.86602 65.755 10.186 66.015C10.511 66.275 10.751 66.59 10.906 66.96C11.061 67.325 11.1385 67.735 11.1385 68.19C11.1385 68.57 11.0785 68.925 10.9585 69.255C10.8385 69.585 10.6635 69.8825 10.4335 70.1475C10.2085 70.4075 9.93102 70.63 9.60102 70.815C9.27602 71 8.90602 71.14 8.49102 71.235C8.67602 71.34 8.83602 71.4925 8.97102 71.6925L12.106 75.96ZM23.1978 74.775L23.1903 75.96H16.5678V65.2125H23.1903V66.3975H18.0228V69.9675H22.2078V71.1075H18.0228V74.775H23.1978ZM33.9325 71.97L32.245 67.5975C32.195 67.4675 32.1425 67.3175 32.0875 67.1475C32.0325 66.9725 31.98 66.7875 31.93 66.5925C31.825 66.9975 31.7175 67.335 31.6075 67.605L29.92 71.97H33.9325ZM36.9625 75.96H35.8375C35.7075 75.96 35.6025 75.9275 35.5225 75.8625C35.4425 75.7975 35.3825 75.715 35.3425 75.615L34.3375 73.02H29.515L28.51 75.615C28.48 75.705 28.4225 75.785 28.3375 75.855C28.2525 75.925 28.1475 75.96 28.0225 75.96H26.8975L31.195 65.2125H32.665L36.9625 75.96ZM48.6431 73.74C48.7231 73.74 48.7931 73.7725 48.8531 73.8375L49.4306 74.46C48.9906 74.97 48.4556 75.3675 47.8256 75.6525C47.2006 75.9375 46.4431 76.08 45.5531 76.08C44.7831 76.08 44.0831 75.9475 43.4531 75.6825C42.8231 75.4125 42.2856 75.0375 41.8406 74.5575C41.3956 74.0725 41.0506 73.4925 40.8056 72.8175C40.5606 72.1425 40.4381 71.4 40.4381 70.59C40.4381 69.78 40.5656 69.0375 40.8206 68.3625C41.0756 67.6875 41.4331 67.1075 41.8931 66.6225C42.3581 66.1375 42.9131 65.7625 43.5581 65.4975C44.2031 65.2275 44.9156 65.0925 45.6956 65.0925C46.4606 65.0925 47.1356 65.215 47.7206 65.46C48.3056 65.705 48.8206 66.0375 49.2656 66.4575L48.7856 67.125C48.7556 67.175 48.7156 67.2175 48.6656 67.2525C48.6206 67.2825 48.5581 67.2975 48.4781 67.2975C48.3881 67.2975 48.2781 67.25 48.1481 67.155C48.0181 67.055 47.8481 66.945 47.6381 66.825C47.4281 66.705 47.1656 66.5975 46.8506 66.5025C46.5356 66.4025 46.1481 66.3525 45.6881 66.3525C45.1331 66.3525 44.6256 66.45 44.1656 66.645C43.7056 66.835 43.3081 67.1125 42.9731 67.4775C42.6431 67.8425 42.3856 68.2875 42.2006 68.8125C42.0156 69.3375 41.9231 69.93 41.9231 70.59C41.9231 71.26 42.0181 71.8575 42.2081 72.3825C42.4031 72.9075 42.6656 73.3525 42.9956 73.7175C43.3306 74.0775 43.7231 74.3525 44.1731 74.5425C44.6281 74.7325 45.1181 74.8275 45.6431 74.8275C45.9631 74.8275 46.2506 74.81 46.5056 74.775C46.7656 74.735 47.0031 74.675 47.2181 74.595C47.4381 74.515 47.6406 74.415 47.8256 74.295C48.0156 74.17 48.2031 74.0225 48.3881 73.8525C48.4731 73.7775 48.5581 73.74 48.6431 73.74ZM61.3851 66.435H57.9051V75.96H56.4576V66.435H52.9701V65.2125H61.3851V66.435Z" fill="#0D1D33"/>
</svg>
