<svg width="51" height="81" viewBox="0 0 51 81" fill="none" xmlns="http://www.w3.org/2000/svg">
<g clip-path="url(#clip0_1_695)">
<mask id="mask0_1_695" style="mask-type:luminance" maskUnits="userSpaceOnUse" x="0" y="0" width="51" height="51">
<path d="M50.0586 0.958984H0.0585938V50.959H50.0586V0.958984Z" fill="white"/>
</mask>
<g mask="url(#mask0_1_695)">
<path d="M39.7046 4.86523H49.6162L24.8373 47.6086L0.0585938 4.86523H9.84617H19.0144L24.8373 14.7767L30.5365 4.86523H39.7046Z" fill="#41B883"/>
<mask id="mask1_1_695" style="mask-type:alpha" maskUnits="userSpaceOnUse" x="0" y="4" width="50" height="44">
<path d="M39.7046 4.86523H49.6162L24.8373 47.6086L0.0585938 4.86523H9.84617H19.0144L24.8373 14.7767L30.5365 4.86523H39.7046Z" fill="white"/>
</mask>
<g mask="url(#mask1_1_695)">
<path d="M0.0585938 4.86523L24.8373 47.6086L49.6162 4.86523H39.7046L24.8373 30.5112L9.84617 4.86523H0.0585938Z" fill="#41B883"/>
<path d="M9.8457 4.86523L24.8369 30.6352L39.7041 4.86523H30.536L24.8369 14.7767L19.0139 4.86523H9.8457Z" fill="#35495E"/>
<g style="mix-blend-mode:color">
<path d="M52.9191 4.03906H-3.24609V49.4668H52.9191V4.03906Z" fill="#0D1D33"/>
</g>
</g>
</g>
</g>
<path d="M16.8117 65.2125L12.4317 75.96H11.1267L6.74666 65.2125H7.90916C8.03916 65.2125 8.14416 65.245 8.22416 65.31C8.30416 65.375 8.36416 65.4575 8.40416 65.5575L11.4342 73.14C11.4992 73.31 11.5617 73.495 11.6217 73.695C11.6867 73.895 11.7442 74.105 11.7942 74.325C11.8442 74.105 11.8967 73.895 11.9517 73.695C12.0067 73.495 12.0667 73.31 12.1317 73.14L15.1542 65.5575C15.1842 65.4725 15.2417 65.395 15.3267 65.325C15.4167 65.25 15.5242 65.2125 15.6492 65.2125H16.8117ZM25.373 74.805C25.818 74.805 26.2155 74.73 26.5655 74.58C26.9155 74.43 27.2105 74.22 27.4505 73.95C27.6955 73.68 27.8805 73.3575 28.0055 72.9825C28.1355 72.6075 28.2005 72.195 28.2005 71.745V65.2125H29.648V71.745C29.648 72.365 29.548 72.94 29.348 73.47C29.153 74 28.8705 74.46 28.5005 74.85C28.1355 75.235 27.688 75.5375 27.158 75.7575C26.628 75.9775 26.033 76.0875 25.373 76.0875C24.713 76.0875 24.118 75.9775 23.588 75.7575C23.058 75.5375 22.608 75.235 22.238 74.85C21.868 74.46 21.583 74 21.383 73.47C21.188 72.94 21.0905 72.365 21.0905 71.745V65.2125H22.538V71.7375C22.538 72.1875 22.6005 72.6 22.7255 72.975C22.8555 73.35 23.0405 73.6725 23.2805 73.9425C23.5255 74.2125 23.823 74.425 24.173 74.58C24.528 74.73 24.928 74.805 25.373 74.805ZM41.8858 74.775L41.8783 75.96H35.2558V65.2125H41.8783V66.3975H36.7108V69.9675H40.8958V71.1075H36.7108V74.775H41.8858Z" fill="#0D1D33"/>
<defs>
<clipPath id="clip0_1_695">
<rect width="50" height="50" fill="white" transform="translate(0.0585938 0.958984)"/>
</clipPath>
</defs>
</svg>
