<svg width="99" height="81" viewBox="0 0 99 81" fill="none" xmlns="http://www.w3.org/2000/svg">
<path d="M68.6719 27.4238C68.6719 38.166 59.8828 46.9551 49.1406 46.9551C38.3984 46.9551 29.6094 38.166 29.6094 27.4238C29.6094 16.6816 38.3984 7.89258 49.1406 7.89258C59.8828 7.89258 68.6719 16.6816 68.6719 27.4238Z" fill="#708096"/>
<path d="M55.0977 24.9141C55.0977 24.9141 53.4082 30.207 53.2812 30.6562C53.2324 30.207 52.002 20.6953 52.002 20.6953C49.1211 20.6953 47.5879 22.7363 46.7773 24.9141C46.7773 24.9141 44.7266 30.2266 44.5605 30.6758C44.5508 30.2559 44.248 24.9727 44.248 24.9727C44.0723 22.3164 41.6504 20.7051 39.6875 20.7051L42.0508 35.1191C45.0684 35.1094 46.6895 33.0684 47.5391 30.9004C47.5391 30.9004 49.3457 26.2129 49.4238 25.998C49.4434 26.2031 50.7227 35.1191 50.7227 35.1191C53.7402 35.1191 55.3711 33.2051 56.25 31.1152L60.4687 20.6953C57.4805 20.6953 55.9082 22.7363 55.0977 24.9141Z" fill="white"/>
<path d="M17.3845 65.2125L14.032 75.96H12.727L10.0045 67.7625C9.97947 67.6825 9.95447 67.5975 9.92947 67.5075C9.90947 67.4175 9.88697 67.3225 9.86197 67.2225C9.83697 67.3225 9.81197 67.4175 9.78697 67.5075C9.76197 67.5975 9.73697 67.6825 9.71197 67.7625L6.97447 75.96H5.66947L2.31697 65.2125H3.52447C3.65447 65.2125 3.76197 65.245 3.84697 65.31C3.93697 65.375 3.99447 65.4575 4.01947 65.5575L6.23947 73.0275C6.27447 73.1625 6.30697 73.3075 6.33697 73.4625C6.37197 73.6175 6.40447 73.7825 6.43447 73.9575C6.46947 73.7825 6.50447 73.6175 6.53947 73.4625C6.57947 73.3025 6.62197 73.1575 6.66697 73.0275L9.19447 65.5575C9.22447 65.4725 9.28197 65.395 9.36697 65.325C9.45697 65.25 9.56447 65.2125 9.68947 65.2125H10.1095C10.2395 65.2125 10.3445 65.245 10.4245 65.31C10.5045 65.375 10.5645 65.4575 10.6045 65.5575L13.1245 73.0275C13.1695 73.1575 13.2095 73.2975 13.2445 73.4475C13.2845 73.5975 13.322 73.755 13.357 73.92C13.382 73.755 13.4095 73.5975 13.4395 73.4475C13.4695 73.2975 13.502 73.1575 13.537 73.0275L15.7645 65.5575C15.7895 65.4675 15.8445 65.3875 15.9295 65.3175C16.0195 65.2475 16.127 65.2125 16.252 65.2125H17.3845ZM28.6143 74.775L28.6068 75.96H21.9843V65.2125H28.6068V66.3975H23.4393V69.9675H27.6243V71.1075H23.4393V74.775H28.6143ZM37.414 74.805C37.829 74.805 38.1865 74.7575 38.4865 74.6625C38.7865 74.5675 39.0315 74.435 39.2215 74.265C39.4165 74.09 39.559 73.885 39.649 73.65C39.739 73.41 39.784 73.1475 39.784 72.8625C39.784 72.3075 39.5865 71.87 39.1915 71.55C38.7965 71.225 38.204 71.0625 37.414 71.0625H35.089V74.805H37.414ZM35.089 66.36V70.0275H37.009C37.419 70.0275 37.774 69.9825 38.074 69.8925C38.379 69.8025 38.629 69.6775 38.824 69.5175C39.024 69.3575 39.1715 69.165 39.2665 68.94C39.3615 68.71 39.409 68.46 39.409 68.19C39.409 67.555 39.219 67.0925 38.839 66.8025C38.459 66.5075 37.869 66.36 37.069 66.36H35.089ZM37.069 65.2125C37.729 65.2125 38.2965 65.2775 38.7715 65.4075C39.2515 65.5375 39.644 65.7225 39.949 65.9625C40.259 66.2025 40.4865 66.4975 40.6315 66.8475C40.7765 67.1925 40.849 67.5825 40.849 68.0175C40.849 68.2825 40.8065 68.5375 40.7215 68.7825C40.6415 69.0225 40.519 69.2475 40.354 69.4575C40.189 69.6675 39.979 69.8575 39.724 70.0275C39.474 70.1925 39.179 70.3275 38.839 70.4325C39.629 70.5825 40.2215 70.865 40.6165 71.28C41.0165 71.69 41.2165 72.23 41.2165 72.9C41.2165 73.355 41.1315 73.77 40.9615 74.145C40.7965 74.52 40.5515 74.8425 40.2265 75.1125C39.9065 75.3825 39.5115 75.5925 39.0415 75.7425C38.5715 75.8875 38.0365 75.96 37.4365 75.96H33.6415V65.2125H37.069ZM47.7938 66.3975V70.155H52.2113V71.34H47.7938V75.96H46.3388V65.2125H52.9613V66.3975H47.7938ZM63.9178 74.7375V75.96H57.8203V65.2125H59.2678V74.7375H63.9178ZM77.9573 70.59C77.9573 71.395 77.8298 72.135 77.5748 72.81C77.3198 73.48 76.9598 74.0575 76.4948 74.5425C76.0298 75.0275 75.4698 75.405 74.8148 75.675C74.1648 75.94 73.4448 76.0725 72.6548 76.0725C71.8648 76.0725 71.1448 75.94 70.4948 75.675C69.8448 75.405 69.2873 75.0275 68.8223 74.5425C68.3573 74.0575 67.9973 73.48 67.7423 72.81C67.4873 72.135 67.3598 71.395 67.3598 70.59C67.3598 69.785 67.4873 69.0475 67.7423 68.3775C67.9973 67.7025 68.3573 67.1225 68.8223 66.6375C69.2873 66.1475 69.8448 65.7675 70.4948 65.4975C71.1448 65.2275 71.8648 65.0925 72.6548 65.0925C73.4448 65.0925 74.1648 65.2275 74.8148 65.4975C75.4698 65.7675 76.0298 66.1475 76.4948 66.6375C76.9598 67.1225 77.3198 67.7025 77.5748 68.3775C77.8298 69.0475 77.9573 69.785 77.9573 70.59ZM76.4648 70.59C76.4648 69.93 76.3748 69.3375 76.1948 68.8125C76.0148 68.2875 75.7598 67.845 75.4298 67.485C75.0998 67.12 74.6998 66.84 74.2298 66.645C73.7598 66.45 73.2348 66.3525 72.6548 66.3525C72.0798 66.3525 71.5573 66.45 71.0873 66.645C70.6173 66.84 70.2148 67.12 69.8798 67.485C69.5498 67.845 69.2948 68.2875 69.1148 68.8125C68.9348 69.3375 68.8448 69.93 68.8448 70.59C68.8448 71.25 68.9348 71.8425 69.1148 72.3675C69.2948 72.8875 69.5498 73.33 69.8798 73.695C70.2148 74.055 70.6173 74.3325 71.0873 74.5275C71.5573 74.7175 72.0798 74.8125 72.6548 74.8125C73.2348 74.8125 73.7598 74.7175 74.2298 74.5275C74.6998 74.3325 75.0998 74.055 75.4298 73.695C75.7598 73.33 76.0148 72.8875 76.1948 72.3675C76.3748 71.8425 76.4648 71.25 76.4648 70.59ZM96.8054 65.2125L93.4529 75.96H92.1479L89.4254 67.7625C89.4004 67.6825 89.3754 67.5975 89.3504 67.5075C89.3304 67.4175 89.3079 67.3225 89.2829 67.2225C89.2579 67.3225 89.2329 67.4175 89.2079 67.5075C89.1829 67.5975 89.1579 67.6825 89.1329 67.7625L86.3954 75.96H85.0904L81.7379 65.2125H82.9454C83.0754 65.2125 83.1829 65.245 83.2679 65.31C83.3579 65.375 83.4154 65.4575 83.4404 65.5575L85.6604 73.0275C85.6954 73.1625 85.7279 73.3075 85.7579 73.4625C85.7929 73.6175 85.8254 73.7825 85.8554 73.9575C85.8904 73.7825 85.9254 73.6175 85.9604 73.4625C86.0004 73.3025 86.0429 73.1575 86.0879 73.0275L88.6154 65.5575C88.6454 65.4725 88.7029 65.395 88.7879 65.325C88.8779 65.25 88.9854 65.2125 89.1104 65.2125H89.5304C89.6604 65.2125 89.7654 65.245 89.8454 65.31C89.9254 65.375 89.9854 65.4575 90.0254 65.5575L92.5454 73.0275C92.5904 73.1575 92.6304 73.2975 92.6654 73.4475C92.7054 73.5975 92.7429 73.755 92.7779 73.92C92.8029 73.755 92.8304 73.5975 92.8604 73.4475C92.8904 73.2975 92.9229 73.1575 92.9579 73.0275L95.1854 65.5575C95.2104 65.4675 95.2654 65.3875 95.3504 65.3175C95.4404 65.2475 95.5479 65.2125 95.6729 65.2125H96.8054Z" fill="#0D1D33"/>
</svg>
