<svg width="27" height="27" viewBox="0 0 27 27" fill="none" xmlns="http://www.w3.org/2000/svg">
<g clip-path="url(#clip0_1_265)">
<path d="M13.082 26.71C20.2617 26.71 26.082 20.8897 26.082 13.71C26.082 6.53027 20.2617 0.709961 13.082 0.709961C5.90234 0.709961 0.0820312 6.53027 0.0820312 13.71C0.0820312 20.8897 5.90234 26.71 13.082 26.71Z" fill="#599D2E"/>
<path d="M15.8564 13.6973H14.0827V20.1577H11.3953V13.6973H10.1172V11.4269H11.3953V9.95761C11.3953 8.90695 11.8973 7.26172 14.1066 7.26172L16.0972 7.26999V9.47385H14.6529C14.416 9.47385 14.0828 9.59153 14.0828 10.0928V11.4289H16.0912L15.8564 13.6973Z" fill="white"/>
</g>
<defs>
<clipPath id="clip0_1_265">
<rect width="26" height="26" fill="white" transform="translate(0.0820312 0.709961)"/>
</clipPath>
</defs>
</svg>
