<svg width="27" height="27" viewBox="0 0 27 27" fill="none" xmlns="http://www.w3.org/2000/svg">
<circle cx="13.0816" cy="13.7095" r="10.732" fill="white"/>
<path fill-rule="evenodd" clip-rule="evenodd" d="M13.082 26.71C20.2617 26.71 26.082 20.8897 26.082 13.71C26.082 6.53026 20.2617 0.709961 13.082 0.709961C5.90233 0.709961 0.0820312 6.53026 0.0820312 13.71C0.0820312 20.8897 5.90233 26.71 13.082 26.71ZM7.72159 20.0216C8.56021 20.0216 9.24006 19.3418 9.24006 18.5031V11.7773C9.24006 10.9386 8.56021 10.2588 7.72159 10.2588C6.88297 10.2588 6.20312 10.9386 6.20312 11.7773V18.5031C6.20312 19.3418 6.88297 20.0216 7.72159 20.0216ZM7.69061 8.86329C6.71158 8.86329 5.91992 8.07029 5.91992 7.09422C5.91992 6.11814 6.71261 5.32617 7.69061 5.32617C8.66654 5.32617 9.46026 6.11917 9.46026 7.09422C9.46026 8.07029 8.66654 8.86329 7.69061 8.86329ZM19.0982 20.0222C19.9363 20.0222 20.6156 19.3428 20.6156 18.5047V14.6676C20.6156 12.0387 20.0474 10.0166 16.9723 10.0166C15.5037 10.0166 14.5164 10.8166 14.1063 11.5798C14.1018 11.5882 14.0931 11.5933 14.0836 11.5933C14.0694 11.5933 14.0579 11.5818 14.0579 11.5676V10.9263C14.0579 10.558 13.7593 10.2593 13.3909 10.2593H12.6012C11.7967 10.2593 11.1445 10.9115 11.1445 11.716V18.5047C11.1445 19.3428 11.8239 20.0222 12.662 20.0222C13.5 20.0222 14.1794 19.3428 14.1794 18.5047V15.1922C14.1794 13.9188 14.4224 12.6856 16.0026 12.6856C17.5602 12.6856 17.5808 14.142 17.5808 15.2745V18.5047C17.5808 19.3428 18.2601 20.0222 19.0982 20.0222Z" fill="#599D2E"/>
</svg>
