<svg width="32" height="32" viewBox="0 0 32 32" fill="none" xmlns="http://www.w3.org/2000/svg">
<path fill-rule="evenodd" clip-rule="evenodd" d="M26.3652 7.40918C27.0757 7.40918 27.7067 7.73418 28.1037 8.23687L16.5733 17.4639L5.1457 8.40443C5.52779 7.80757 6.21693 7.40918 7.00359 7.40918H26.3652ZM4.82812 22.7692V10.0417L13.0278 16.5422L4.84503 23.0292C4.83387 22.944 4.82812 22.8573 4.82812 22.7692ZM5.57803 24.3372C5.95983 24.6534 6.45828 24.8449 7.00359 24.8449H26.3652C26.8339 24.8449 27.268 24.7035 27.6231 24.4629L18.9101 17.4903L17.3432 18.7442C16.9001 19.0988 16.2545 19.1002 15.8097 18.7476L14.2192 17.4867L5.57803 24.3372ZM20.0949 16.5422L28.4812 23.2532C28.5201 23.0979 28.5407 22.9359 28.5407 22.7692V9.78355L20.0949 16.5422Z" fill="#599D2E"/>
</svg>
