<svg width="32" height="32" viewBox="0 0 32 32" fill="none" xmlns="http://www.w3.org/2000/svg">
<path d="M11.0473 11.9991C12.8213 16.8385 14.6578 18.7694 19.3299 20.826L17.3052 23.6696C11.9401 21.1011 9.2679 16.7714 8.00937 13.3925L11.0473 11.9991Z" fill="#599D2E"/>
<path d="M12.5358 5.31819C13.4844 5.31448 14.2057 6.1038 14.141 6.99759C14.0393 8.4041 14.1476 9.41887 14.4393 10.6767C14.5996 11.3677 14.237 12.0694 13.661 12.5214C12.8845 13.1307 12.2913 13.9069 11.8198 14.5752C11.1663 15.5014 8.91743 15.4349 8.42009 14.4258C7.39797 12.3521 6.70529 8.53159 8.19787 5.95038C8.43232 5.54493 8.90438 5.33239 9.39353 5.33048L12.5358 5.31819Z" fill="#599D2E"/>
<path d="M26.9359 20.6635C27.0539 19.7746 26.3109 19.0035 25.3636 18.9566C23.8729 18.8829 22.8192 18.6593 21.5321 18.2345C20.825 18.0012 20.0438 18.2567 19.4994 18.7424C18.7656 19.3971 17.8782 19.86 17.1191 20.2216C16.0668 20.7229 15.8663 22.8394 16.8672 23.427C18.9242 24.6347 22.8569 25.7435 25.7497 24.6546C26.2041 24.4835 26.4843 24.0665 26.5451 23.6081L26.9359 20.6635Z" fill="#599D2E"/>
</svg>
