<svg width="27" height="27" viewBox="0 0 27 27" fill="none" xmlns="http://www.w3.org/2000/svg">
<g clip-path="url(#clip0_1_269)">
<path d="M13.0819 11.4189C11.7998 11.4189 10.7559 12.4623 10.7559 13.7444C10.7559 15.0271 11.7998 16.0707 13.0819 16.0707C14.3645 16.0707 15.4076 15.0271 15.4076 13.7444C15.4076 12.4626 14.3643 11.4189 13.0819 11.4189Z" fill="#599D2E"/>
<path d="M13.082 0.709961C5.9026 0.709961 0.0820312 6.53053 0.0820312 13.71C0.0820312 20.8894 5.9026 26.71 13.082 26.71C20.2615 26.71 26.082 20.8894 26.082 13.71C26.082 6.53053 20.2615 0.709961 13.082 0.709961Z" fill="#599D2E"/>
<path fill-rule="evenodd" clip-rule="evenodd" d="M13.082 8.47681C10.989 8.47681 8.27246 9.00356 8.27246 9.00356L8.26562 9.0114C7.31236 9.16454 6.58203 9.98732 6.58203 10.9879V14.0013V16.3647C6.58395 17.3529 7.29968 18.1924 8.27051 18.3461L8.27246 18.3491C8.27246 18.3491 10.989 18.8768 13.082 18.8768C15.175 18.8768 17.8916 18.3491 17.8916 18.3491C18.8645 18.1946 19.581 17.3539 19.582 16.3657V14.0023V10.9879C19.5806 10.0004 18.8647 9.16033 17.8936 9.0065C17.8916 9.00356 15.175 8.47681 13.082 8.47681ZM11.782 11.4018L15.682 13.6768L11.782 15.9518V11.4018Z" fill="white"/>
</g>
<defs>
<clipPath id="clip0_1_269">
<rect width="26" height="26" fill="white" transform="translate(0.0820312 0.709961)"/>
</clipPath>
</defs>
</svg>
